<?xml version="1.0" standalone="no"?>
<!DOCTYPE svg PUBLIC "-//W3C//DTD SVG 20010904//EN"
 "http://www.w3.org/TR/2001/REC-SVG-20010904/DTD/svg10.dtd">
<svg version="1.0" xmlns="http://www.w3.org/2000/svg"
 width="1536.000000pt" height="1536.000000pt" viewBox="0 0 1536.000000 1536.000000"
 preserveAspectRatio="xMidYMid meet">

<g transform="translate(0.000000,1536.000000) scale(0.100000,-0.100000)"
fill="#000000" stroke="none">
<path d="M7698 11094 c-46 -14 -247 -190 -868 -763 -69 -64 -153 -140 -185
-170 -33 -30 -154 -142 -270 -250 -225 -209 -227 -212 -470 -436 -88 -82 -165
-156 -172 -164 -10 -12 -12 -324 -13 -1383 l0 -1368 245 0 245 0 0 1308 0
1309 73 69 c40 38 122 114 182 168 61 55 168 154 240 220 71 67 157 146 190
176 33 30 98 91 145 135 47 44 141 132 210 195 69 63 200 186 291 273 142 133
172 157 198 157 26 0 50 -18 144 -108 85 -83 845 -770 1478 -1337 l36 -32 6
-294 c4 -162 7 -732 7 -1267 l0 -972 247 2 247 3 -2 770 c-1 424 -2 1018 -2
1320 l0 550 -88 85 c-48 47 -144 135 -212 195 -69 61 -260 232 -425 380 -165
149 -428 385 -585 525 -157 140 -287 257 -290 260 -3 3 -68 61 -145 130 -77
68 -162 145 -190 171 -119 110 -144 130 -178 144 -20 8 -38 15 -39 14 -2 0
-24 -7 -50 -15z"/>
<path d="M7695 9952 c-22 -21 -128 -118 -235 -217 -107 -98 -251 -231 -320
-294 -68 -64 -152 -141 -185 -171 -33 -30 -89 -83 -125 -116 -36 -34 -78 -74
-95 -89 l-30 -27 -5 -1186 c-3 -653 -4 -1211 -2 -1239 l3 -53 320 0 319 0 0
1259 0 1259 192 186 191 186 43 -59 c24 -33 48 -62 53 -66 8 -4 11 -427 11
-1386 l0 -1379 550 0 550 0 0 1178 c-1 910 -3 1180 -13 1192 -7 9 -77 74 -157
145 -113 101 -414 374 -486 440 -6 6 -48 44 -94 85 -45 41 -88 80 -94 85 -6 6
-84 76 -172 158 -89 81 -166 147 -170 147 -5 0 -27 -17 -49 -38z"/>
<path d="M10405 8748 c-2 -7 -5 -24 -6 -38 -5 -79 -8 -2122 -3 -2135 6 -13 36
-15 240 -13 l235 3 1 904 1 904 -28 20 c-41 30 -409 350 -413 359 -6 12 -22 9
-27 -4z"/>
<path d="M5038 8609 c-73 -61 -157 -131 -187 -157 -30 -26 -65 -55 -78 -65
l-23 -18 0 -905 0 -904 240 0 240 0 0 1066 c0 1130 1 1094 -44 1094 -8 0 -75
-50 -148 -111z"/>
<path d="M2802 5981 c-169 -58 -292 -231 -321 -454 -25 -185 26 -393 125 -514
51 -62 131 -119 200 -144 82 -29 207 -23 288 14 54 25 176 129 176 150 0 13
-93 156 -102 157 -3 0 -20 -11 -36 -25 -57 -48 -133 -79 -192 -79 -30 1 -66 7
-80 14 -121 63 -184 298 -129 476 20 64 52 124 71 132 5 2 31 19 58 38 76 52
141 42 259 -39 l44 -30 24 29 c13 16 33 46 43 66 11 20 24 39 30 43 38 23 -43
105 -154 155 -58 27 -76 30 -158 30 -63 -1 -110 -6 -146 -19z"/>
<path d="M3634 5977 c-76 -29 -107 -51 -176 -126 -104 -112 -146 -217 -155
-391 -11 -212 37 -352 166 -481 102 -102 154 -123 301 -124 120 0 159 12 251
77 148 104 242 297 242 498 0 234 -117 442 -298 531 -62 31 -78 34 -169 36
-86 3 -110 0 -162 -20z m260 -232 c78 -46 121 -127 131 -252 24 -285 -142
-479 -338 -393 -94 42 -138 134 -145 307 -3 95 -1 123 18 184 25 84 81 151
145 175 56 20 133 12 189 -21z"/>
<path d="M8442 5982 c-116 -42 -213 -137 -274 -270 -81 -177 -78 -420 8 -599
134 -281 460 -358 661 -158 72 73 74 89 21 163 -24 34 -50 61 -59 61 -8 1 -28
-12 -43 -28 -74 -77 -220 -94 -294 -34 -83 67 -114 152 -113 305 0 58 7 123
15 153 52 179 241 254 361 144 23 -21 45 -39 49 -39 10 0 146 82 152 92 8 12
-59 111 -97 142 -66 56 -134 80 -239 83 -74 3 -107 -1 -148 -15z"/>
<path d="M9876 5984 c-143 -44 -261 -172 -324 -353 -23 -67 -26 -91 -26 -206
0 -97 4 -145 18 -190 50 -165 166 -309 291 -359 58 -24 85 -29 157 -29 77 0
94 3 150 31 63 31 110 70 155 129 l25 32 -44 75 c-23 42 -46 75 -50 76 -4 0
-28 -18 -53 -40 -60 -52 -107 -71 -172 -71 -63 0 -98 17 -147 72 -50 54 -72
106 -86 201 -15 103 -1 202 40 282 76 148 217 177 367 74 23 -15 49 -28 58
-28 10 0 30 30 57 86 l41 87 -39 34 c-118 102 -279 139 -418 97z"/>
<path d="M5262 5980 l-94 -5 -52 -120 c-161 -366 -215 -494 -227 -527 -7 -21
-16 -38 -20 -38 -3 0 -22 42 -42 93 -34 89 -74 183 -197 462 l-57 130 -108 3
c-60 1 -112 -1 -117 -6 -11 -11 -13 -1101 -2 -1112 5 -5 54 -6 108 -3 l99 6
-6 361 c-5 262 -3 354 5 336 5 -14 32 -74 58 -135 27 -60 71 -166 99 -235 28
-69 60 -144 71 -167 l20 -43 62 0 c35 0 69 4 76 8 12 8 95 197 203 462 l58
145 1 -372 0 -373 100 0 100 0 1 403 c0 221 0 474 1 562 l1 159 -24 6 c-13 3
-66 3 -117 0z"/>
<path d="M6690 5425 c0 -311 3 -565 8 -565 4 0 138 -1 299 -3 l292 -2 3 91 c2
51 2 99 0 108 -3 14 -26 16 -188 16 l-185 0 3 128 3 127 130 1 130 0 3 103 3
102 -131 -3 -130 -3 -1 80 c-1 44 -2 100 -3 125 l-1 45 183 3 183 2 -3 103 -3
102 -297 2 -298 2 0 -564z"/>
<path d="M7367 5983 c-8 -14 -12 -1123 -4 -1123 4 0 57 0 117 0 l110 0 0 201
0 200 36 -3 c35 -3 36 -4 121 -168 48 -91 96 -180 107 -199 l22 -33 114 1 c62
1 118 5 122 7 5 3 -13 47 -40 97 -100 187 -184 341 -195 359 -10 15 -6 23 25
48 70 58 118 174 118 286 0 167 -105 290 -274 320 -77 14 -372 19 -379 7z
m376 -229 c53 -28 74 -132 42 -211 -23 -55 -52 -72 -128 -75 l-64 -3 -7 131
c-4 73 -4 144 0 159 7 27 7 27 67 20 34 -3 74 -13 90 -21z"/>
<path d="M8945 5425 l-1 -565 298 0 298 0 2 80 c1 44 2 94 2 112 l1 32 -130
-3 c-71 -1 -151 -4 -177 -6 -56 -3 -55 -6 -50 154 l3 103 130 -7 129 -7 0 101
c0 89 -2 101 -17 102 -10 1 -69 4 -131 8 -62 3 -112 9 -112 14 0 4 0 56 0 117
l0 110 175 2 176 3 2 105 2 105 -300 3 -300 2 0 -565z"/>
<path d="M10433 5982 c-29 -2 -43 -8 -45 -19 -2 -9 -2 -261 0 -560 l2 -543
115 0 115 0 0 198 c0 108 4 203 9 211 6 9 18 11 34 7 27 -6 61 -62 190 -306
l56 -105 204 -3 203 -2 40 122 40 123 179 0 179 0 39 -122 39 -123 76 -1 c42
0 96 -2 120 -3 36 -3 42 -1 37 13 -44 112 -322 943 -345 1030 -11 41 -21 76
-23 77 -2 2 -54 5 -117 6 l-113 3 -18 -45 c-10 -25 -89 -255 -175 -512 -131
-391 -159 -465 -169 -450 -7 9 -43 76 -80 147 -37 72 -79 148 -93 169 l-24 39
45 39 c81 69 117 154 117 280 0 179 -119 307 -307 329 -72 9 -229 9 -330 1z
m301 -212 c22 -5 53 -22 69 -39 39 -38 48 -118 23 -185 -24 -63 -40 -73 -123
-78 l-73 -4 0 158 0 158 33 0 c17 0 50 -5 71 -10z m866 -137 c7 -27 26 -93 42
-148 17 -55 36 -121 43 -147 l12 -48 -124 0 c-114 0 -124 1 -119 18 8 29 107
356 112 370 7 23 21 4 34 -45z"/>
<path d="M12120 5976 c-6 -6 -10 -227 -10 -568 l0 -558 115 0 115 0 0 215 0
215 149 0 148 0 6 97 c3 53 3 101 1 105 -3 4 -71 8 -152 8 l-147 0 0 138 0
137 25 4 c14 2 152 0 308 -4 l282 -7 0 -449 0 -449 115 0 115 0 0 450 0 450
83 2 c45 2 106 1 135 0 l52 -2 0 114 0 114 -665 -2 c-405 0 -670 -5 -675 -10z"/>
<path d="M5527 5973 c-4 -3 -7 -255 -7 -558 l0 -552 56 -6 c31 -3 78 -3 104 0
l47 5 -4 302 c-1 165 -5 327 -7 359 -2 32 0 55 5 51 5 -3 9 -10 9 -15 0 -6 35
-92 79 -192 43 -100 93 -219 111 -265 18 -45 42 -89 53 -97 12 -9 44 -15 73
-15 70 0 86 20 159 206 32 82 66 167 76 189 10 22 32 74 48 115 17 41 31 71
31 65 0 -5 0 -167 0 -360 l-1 -350 85 -3 c142 -6 126 -78 126 569 l0 559 -92
0 c-51 0 -102 -3 -114 -6 -24 -6 -29 -17 -134 -259 -137 -316 -176 -405 -182
-410 -3 -3 -11 9 -18 27 -13 32 -173 401 -210 483 -47 107 -60 139 -60 151 0
11 -24 14 -113 14 -63 0 -117 -3 -120 -7z"/>
</g>
</svg>
