<svg version="1.2" xmlns="http://www.w3.org/2000/svg" viewBox="0 0 1536 1536" width="1536" height="1536">
	<title>logo-svg</title>
	<style>
		.s0 { fill: #251f21 } 
		.s1 { fill: #272223 } 
		.s2 { fill: #252122 } 
		.s3 { fill: #252021 } 
		.s4 { fill: #272123 } 
		.s5 { fill: #262122 } 
		.s6 { fill: #262123 } 
		.s7 { fill: #272323 } 
		.s8 { fill: #282223 } 
		.s9 { fill: #bdbdbd } 
		.s10 { fill: #bcbcbc } 
		.s11 { fill: #c1c0c0 } 
		.s12 { fill: #bebebe } 
		.s13 { fill: #c1c0bf } 
		.s14 { fill: #babab9 } 
		.s15 { fill: #171514 } 
		.s16 { fill: #d0cfcf } 
		.s17 { fill: #c8c8c8 } 
		.s18 { fill: #cdcccd } 
		.s19 { fill: #1e1a1b } 
		.s20 { fill: #130f10 } 
		.s21 { fill: #d0cfce } 
		.s22 { fill: #0f0d0d } 
		.s23 { fill: #181616 } 
		.s24 { fill: #141112 } 
		.s25 { fill: #2e2b2a } 
		.s26 { fill: #181414 } 
		.s27 { fill: #c4c3c3 } 
		.s28 { fill: #110f10 } 
		.s29 { fill: #d3d2d1 } 
		.s30 { fill: #d9d8d8 } 
		.s31 { fill: #d3d2d2 } 
		.s32 { fill: #110e0f } 
		.s33 { fill: #d4d4d4 } 
		.s34 { fill: #2c2a2a } 
		.s35 { fill: #110f0e } 
		.s36 { fill: #cacaca } 
		.s37 { fill: #cbcaca } 
		.s38 { fill: #d6d4d4 } 
		.s39 { fill: #e1dfe0 } 
		.s40 { fill: #d1cfd0 } 
		.s41 { fill: #191718 } 
		.s42 { fill: #181516 } 
		.s43 { fill: #bbbcbb } 
		.s44 { fill: #121011 } 
		.s45 { fill: #141011 } 
		.s46 { fill: #c8c6c7 } 
		.s47 { fill: #d2d1d2 } 
		.s48 { fill: #d2d1cf } 
		.s49 { fill: #c6c6c5 } 
		.s50 { fill: #211d1e } 
		.s51 { fill: #c7c4c4 } 
		.s52 { fill: #cfd0cf } 
		.s53 { fill: #c5c4c5 } 
		.s54 { fill: #191816 } 
		.s55 { fill: #cccdca } 
		.s56 { fill: #c4c4c4 } 
		.s57 { fill: #c9c7c7 } 
		.s58 { fill: #c9c8c8 } 
		.s59 { fill: #bfbfbe } 
		.s60 { fill: #d1d1d1 } 
		.s61 { fill: #0b0808 } 
		.s62 { fill: #cccbcb } 
		.s63 { fill: #d6d4d5 } 
		.s64 { fill: #100f0f } 
		.s65 { fill: #090708 } 
		.s66 { fill: #1f191b } 
		.s67 { fill: #c7c6c6 } 
		.s68 { fill: #151213 } 
		.s69 { fill: #100d0d } 
		.s70 { fill: #1e1b1c } 
		.s71 { fill: #cac8c9 } 
		.s72 { fill: #d7d7d7 } 
		.s73 { fill: #2f2c2e } 
		.s74 { fill: #ccccca } 
		.s75 { fill: #2c292a } 
		.s76 { fill: #0d0b0c } 
		.s77 { fill: #a5a4a4 } 
		.s78 { fill: #2f2a2b } 
		.s79 { fill: #1c1819 } 
		.s80 { fill: #d2d1d0 } 
		.s81 { fill: #c9c7c8 } 
		.s82 { fill: #1f1c1d } 
		.s83 { fill: #c4c2c3 } 
		.s84 { fill: #151011 } 
		.s85 { fill: #2e2a2b } 
		.s86 { fill: #c1c1bf } 
		.s87 { fill: #1b1718 } 
		.s88 { fill: #201d1e } 
		.s89 { fill: #1b191a } 
		.s90 { fill: #2a2728 } 
		.s91 { fill: #2b2728 } 
		.s92 { fill: #cecccd } 
		.s93 { fill: #d3d3d3 } 
		.s94 { fill: #cdcccc } 
		.s95 { fill: #b2b3b2 } 
		.s96 { fill: #c7c5c5 } 
		.s97 { fill: #2d292a } 
		.s98 { fill: #1d191a } 
		.s99 { fill: #141212 } 
		.s100 { fill: #cfcece } 
		.s101 { fill: #b2b2b2 } 
		.s102 { fill: #181715 } 
		.s103 { fill: #bbbcbc } 
		.s104 { fill: #c9c8c9 } 
		.s105 { fill: #dcdcdb } 
		.s106 { fill: #d0d1d0 } 
		.s107 { fill: #201c1d } 
		.s108 { fill: #acacac } 
		.s109 { fill: #c9c8c6 } 
		.s110 { fill: #c3c1c2 } 
		.s111 { fill: #131111 } 
		.s112 { fill: #1b1918 } 
		.s113 { fill: #191516 } 
		.s114 { fill: #141213 } 
		.s115 { fill: #cbc9ca } 
		.s116 { fill: #363334 } 
		.s117 { fill: #d2d0d1 } 
		.s118 { fill: #1a1516 } 
		.s119 { fill: #2b2628 } 
		.s120 { fill: #bcbbbc } 
		.s121 { fill: #a9a7a8 } 
		.s122 { fill: #151212 } 
		.s123 { fill: #cac9c9 } 
		.s124 { fill: #c0bfbd } 
		.s125 { fill: #1c1a1b } 
		.s126 { fill: #2c2829 } 
		.s127 { fill: #1d1a1b } 
		.s128 { fill: #1e1c1a } 
		.s129 { fill: #171516 } 
		.s130 { fill: #cdcbcc } 
		.s131 { fill: #c7c6c7 } 
		.s132 { fill: #343031 } 
		.s133 { fill: #c4c3c1 } 
		.s134 { fill: #171415 } 
		.s135 { fill: #d0cecf } 
		.s136 { fill: #1a1819 } 
		.s137 { fill: #171315 } 
		.s138 { fill: #a4a2a3 } 
		.s139 { fill: #161314 } 
		.s140 { fill: #1b1517 } 
		.s141 { fill: #c6c6c6 } 
		.s142 { fill: #302c2b } 
		.s143 { fill: #1a1718 } 
		.s144 { fill: #b1b1b1 } 
		.s145 { fill: #302c2d } 
		.s146 { fill: #323031 } 
		.s147 { fill: #131112 } 
		.s148 { fill: #151314 } 
		.s149 { fill: #1d1b1c } 
		.s150 { fill: #181514 } 
		.s151 { fill: #b5b5b5 } 
		.s152 { fill: #cbcac9 } 
		.s153 { fill: #1e191a } 
		.s154 { fill: #2d282a } 
		.s155 { fill: #c0bebf } 
		.s156 { fill: #c7c7c6 } 
		.s157 { fill: #181717 } 
		.s158 { fill: #2c2b29 } 
		.s159 { fill: #c9c6c7 } 
		.s160 { fill: #322d2c } 
		.s161 { fill: #1c191a } 
		.s162 { fill: #cecdcd } 
		.s163 { fill: #312d2e } 
		.s164 { fill: #b4b2b3 } 
		.s165 { fill: #110d0e } 
		.s166 { fill: #161415 } 
		.s167 { fill: #d0cecd } 
		.s168 { fill: #2b292a } 
		.s169 { fill: #221d1e } 
		.s170 { fill: #b2b2b1 } 
		.s171 { fill: #d2d2d2 } 
		.s172 { fill: #363133 } 
		.s173 { fill: #cecece } 
		.s174 { fill: #3b3738 } 
		.s175 { fill: #322f30 } 
		.s176 { fill: #aeaeae } 
		.s177 { fill: #292728 } 
		.s178 { fill: #d4d3d3 } 
		.s179 { fill: #1f1b1c } 
		.s180 { fill: #211b1b } 
		.s181 { fill: #cfcecd } 
		.s182 { fill: #332e2f } 
		.s183 { fill: #cbc9c9 } 
		.s184 { fill: #c1bebf } 
		.s185 { fill: #121111 } 
		.s186 { fill: #2f2d2e } 
		.s187 { fill: #312b2d } 
		.s188 { fill: #cccaca } 
		.s189 { fill: #2d2828 } 
		.s190 { fill: #cccccc } 
		.s191 { fill: #cac9ca } 
		.s192 { fill: #151112 } 
		.s193 { fill: #c3c5c4 } 
		.s194 { fill: #161214 } 
		.s195 { fill: #afadae } 
		.s196 { fill: #c2bfbf } 
		.s197 { fill: #1a1717 } 
		.s198 { fill: #dededd } 
		.s199 { fill: #c2c2c2 } 
		.s200 { fill: #120f10 } 
		.s201 { fill: #d3d0d1 } 
		.s202 { fill: #2f2a2c } 
		.s203 { fill: #c9c9c7 } 
		.s204 { fill: #c7c7c7 } 
		.s205 { fill: #2d2b2c } 
		.s206 { fill: #302d2e } 
		.s207 { fill: #d7d7d6 } 
		.s208 { fill: #b5b5b3 } 
		.s209 { fill: #2d2829 } 
		.s210 { fill: #d2d1d1 } 
		.s211 { fill: #302a2c } 
		.s212 { fill: #b2b1b2 } 
		.s213 { fill: #b4b4b3 } 
		.s214 { fill: #d0cece } 
		.s215 { fill: #302d2b } 
		.s216 { fill: #c0c0be } 
		.s217 { fill: #c6c5c5 } 
		.s218 { fill: #c8c5c6 } 
		.s219 { fill: #120e0f } 
		.s220 { fill: #2b2829 } 
		.s221 { fill: #cecdce } 
		.s222 { fill: #bebebc } 
		.s223 { fill: #191817 } 
		.s224 { fill: #181617 } 
		.s225 { fill: #c7c5c6 } 
		.s226 { fill: #d0cfd0 } 
		.s227 { fill: #3b3737 } 
		.s228 { fill: #cccbc9 } 
		.s229 { fill: #c3c0c1 } 
		.s230 { fill: #b4b6b5 } 
		.s231 { fill: #d6d5d5 } 
		.s232 { fill: #d1cfcf } 
		.s233 { fill: #302b2c } 
		.s234 { fill: #2d2b2b } 
		.s235 { fill: #2c2729 } 
		.s236 { fill: #181415 } 
		.s237 { fill: #b5b3b4 } 
		.s238 { fill: #cdcdcd } 
		.s239 { fill: #d5d4d5 } 
		.s240 { fill: #c0bfbf } 
		.s241 { fill: #131011 } 
		.s242 { fill: #1a1617 } 
		.s243 { fill: #c1c1c1 } 
		.s244 { fill: #b2b2b0 } 
		.s245 { fill: #1f1c1c } 
		.s246 { fill: #2f2c2d } 
		.s247 { fill: #aeacad } 
		.s248 { fill: #b6b6b6 } 
		.s249 { fill: #b0b0ae } 
		.s250 { fill: #100d0e } 
		.s251 { fill: #2b2729 } 
		.s252 { fill: #d8d6d7 } 
		.s253 { fill: #0f0c0d } 
		.s254 { fill: #ababab } 
		.s255 { fill: #332f30 } 
		.s256 { fill: #363233 } 
		.s257 { fill: #1c1918 } 
		.s258 { fill: #c2c3c0 } 
		.s259 { fill: #393234 } 
		.s260 { fill: #2d2727 } 
		.s261 { fill: #332e30 } 
		.s262 { fill: #b0afae } 
		.s263 { fill: #181315 } 
		.s264 { fill: #cac8c6 } 
		.s265 { fill: #adadad } 
		.s266 { fill: #2e292a } 
		.s267 { fill: #2e292b } 
		.s268 { fill: #bfbebf } 
		.s269 { fill: #1b1819 } 
		.s270 { fill: #151313 } 
		.s271 { fill: #141210 } 
		.s272 { fill: #312c2e } 
		.s273 { fill: #110c0d } 
		.s274 { fill: #1e1d1d } 
		.s275 { fill: #2f2b2c } 
		.s276 { fill: #332f2e } 
		.s277 { fill: #b4b4b4 } 
		.s278 { fill: #d5d3d4 } 
		.s279 { fill: #373231 } 
		.s280 { fill: #131210 } 
		.s281 { fill: #343131 } 
		.s282 { fill: #c6c4c5 } 
		.s283 { fill: #c3c2c2 } 
	</style>
	<path class="s0" d="m775.1 537.2c2.4 1 3.7 2.4 5.5 4.3 2.4 2.6 2.4 2.6 5.4 4.5q0 1 0 2 0.9 0.4 1.8 0.8c2.4 1.3 4 2.7 6 4.6q1 1 2.1 2.1 1.1 1 2.2 2.1c5.4 5.2 10.8 10.2 16.8 14.7 2.6 2.1 4.8 4.4 7.1 6.7q4.1 4 8.3 7.9 1.1 1 2.2 2 6.2 5.9 12.6 11.5c2.8 2.4 5.6 4.9 8.3 7.5q8.2 7.6 16.6 15.1 2.6 2.3 5.1 4.6 5.5 4.9 11 9.7 0.9 0.8 1.9 1.7 1.3 1 2.6 2c3.4 4.2 3.1 7.3 3 12.6 0 1.4 0 1.4 0 2.9q0 4.9 0 9.7 0 3.5 0 7 0 9.5-0.1 19 0 8.9 0 17.8 0 17.6-0.1 35.2-0.1 17.1-0.1 34.2 0 1.1 0 2.2 0 9.3-0.1 18.5 0 40-0.2 79.9c-36.3 0-72.6 0-110 0 0-8.3 0-16.6 0.1-25.1q0-39.9 0-79.8 0-6.2 0-12.4 0-1.2 0-2.5 0-19.9 0-39.9 0.1-20.4 0-40.9 0-12.6 0-25.3 0.1-8.7 0-17.3 0-5 0.1-10c0.5-18.1 0.5-18.1-8.3-33.1-0.9-0.8-0.9-0.8-1.9-1.7-10.2 8.6-19.8 17.7-29.1 27.2q-0.9 1-1.8 1.9-0.9 0.8-1.7 1.7c-1.4 1.2-1.4 1.2-3.4 1.2-0.5 1.5-0.5 1.5-1 3q-1 0-2 0c0 83.5 0 167 0 253-21.1 0-42.2 0-64 0q-0.2-47.1-0.3-94.1 0-5.6 0-11.2 0-1.1 0-2.2 0-17.9-0.1-35.8-0.1-18.4-0.1-36.8 0-11.3 0-22.7-0.1-8.7-0.1-17.4 0-3.5 0-7.1 0-4.9 0-9.7c0-1.4 0-1.4 0-2.9 0-4.6 0.1-6.5 3-10.1q1.3-1 2.6-2 0.9-0.9 1.7-1.8c1.4-1.4 2.9-2.8 4.3-4.2q1 0 2 0 0.4-0.9 0.8-1.8c1.3-2.4 2.7-3.7 4.8-5.5 4.2-3.5 8.2-7.2 12.1-11q7.1-6.6 14.3-13.2 7.1-6.5 14.1-13.1 10-9.4 20.2-18.4 1.1-1.1 2.3-2.1 1.2-1.1 2.5-2.2 3.5-3.3 6.9-6.6c1.1-1.1 1.1-1.1 2.2-2.1q2.2-2.1 4.3-4.2 0.9-1 2-1.9 0.8-0.9 1.7-1.8c1.8-1.1 1.8-1.1 3.9-0.9z"/>
	<path class="s0" d="m773 425.6c4-0.4 6.2-0.1 9.5 2.2 2.6 2.3 5.1 4.7 7.5 7.2q1.9 1.7 3.8 3.3c3.6 3.2 7.2 6.4 10.7 9.7 7.6 7 15.3 13.7 23.4 20.1q1 0.9 2.1 1.9 0 1 0 2 0.9 0.4 1.8 0.8c2.3 1.2 3.7 2.5 5.5 4.4 4.6 4.8 9.7 9.1 14.8 13.4 7 6 13.8 12.1 20.5 18.4 4.5 4.2 9.2 8.2 14 12.1 2.8 2.2 5.3 4.7 7.7 7.2 2.4 2.4 4.8 4.5 7.3 6.6 3 2.7 6 5.4 8.9 8.1 4.1 3.8 8.2 7.5 12.4 11.2 2.7 2.3 5.3 4.8 8 7.2 6.9 6.3 13.8 12.7 21 18.8 6.5 5.5 12.7 11.1 18.9 16.9 3.7 3.5 7.5 7 11.4 10.3q0.9 0.8 1.8 1.6 1.5 1.2 3.1 2.4c3.4 3.5 3.6 6.5 3.7 11.3q-0.1 1.5-0.1 3.1 0 1.6 0 3.3 0 5.4 0 10.9 0 3.9 0 7.8 0 8.5-0.1 16.9 0 12.2 0 24.4-0.1 19.8-0.1 39.6-0.1 19.2-0.2 38.4c0 1.2 0 1.2 0 2.4q0 5.9 0 11.9-0.1 49.3-0.3 98.6c-16.2 0-32.3 0-49 0 0-83.5 0-167 0-253q-2-1-4-2c-1.6-1.5-1.6-1.5-3.2-3.2-3.1-3.1-6.3-6.1-9.6-8.9q-7.7-6.7-15.2-13.6c-5.4-5.1-10.9-9.9-16.7-14.4-2.6-2.2-4.9-4.5-7.3-6.9q-3.6-3.5-7.3-6.9-1-0.9-2-1.9-8.2-7.6-16.7-14.8c-7.3-6.1-14.4-12.5-21.3-19.1q-5.8-5.4-11.8-10.6c-2.8-2.5-5.6-5.1-8.4-7.7-8-7.7-8-7.7-16.7-14.6q-0.9-0.7-1.8-1.4 0-1 0-2-0.9-0.4-1.8-0.8c-2.3-1.2-3.7-2.5-5.5-4.4-0.9-0.9-0.9-0.9-1.8-1.8q-1-1-1.9-1.9c-6.1-7-6.1-7-14.3-10.8-5.5 1-7.9 4.2-11.6 8.3q-2 2.1-4.1 4.2-1 1.1-2 2.1c-2.6 2.7-5.4 5.1-8.2 7.5-1.8 1.6-3.6 3.3-5.3 5.1-2.3 2.4-4.7 4.6-7.2 6.7-4.2 3.7-8.3 7.5-12.3 11.3-4 3.8-8 7.5-12.2 11.2-3.1 2.6-6 5.4-8.8 8.3-3.5 3.5-7 6.8-10.8 10.1-2.8 2.4-5.5 4.9-8.3 7.5q-0.8 0.7-1.6 1.5-4.7 4.3-9.3 8.7-1 1-2.1 1.9-1.9 1.9-3.9 3.8-0.9 0.8-1.8 1.7-0.8 0.7-1.6 1.5c-1.7 1.4-3.5 2.4-5.6 3.3q0 1 0 2c-1.3 1.3-1.3 1.3-3.2 2.9-3.9 3.3-7.6 6.6-11.3 10.1-4.1 3.8-8.3 7.6-12.6 11.3q-0.9 0.8-1.9 1.7-1.5 1.2-3.1 2.4c-3.4 3.5-3.6 6.5-3.7 11.2q0 1.5 0 3.1c0 1.6 0 1.6 0 3.2q0 5.4 0 10.8 0 3.9 0 7.8 0 8.3 0 16.7 0 12 0 24.1-0.1 19.5-0.1 39.1 0 19 0 38 0 1.2 0 2.4 0 5.8 0 11.7-0.1 48.8-0.1 97.5c-16.2 0-32.3 0-49 0q-0.5-52-0.8-104 0-6.1 0-12.2 0-1.3 0-2.5-0.1-19.8-0.4-39.6-0.2-20.3-0.2-40.6 0-12.5-0.2-25-0.1-8.6-0.1-17.2 0-5-0.1-9.9c-0.4-21.8-0.4-21.8 7.1-30 3.1-2.9 6.3-5.5 9.7-8q2.2-1.9 4.4-3.9c0.9-0.8 0.9-0.8 1.8-1.6 2.1-1.7 3.9-3.6 5.8-5.5 3.2-3.2 6.4-6.2 9.9-9.2 6-5.1 11.8-10.5 17.4-16.1 2.5-2.5 5.1-4.7 7.7-7 2.5-2.2 4.8-4.5 7.1-6.9 1.8-1.7 3.7-3.4 5.6-5 4.3-3.8 8.4-7.6 12.6-11.6q10.2-9.7 20.7-19.2 1.6-1.4 3.1-2.9 0.8-0.7 1.6-1.4 2.2-2 4.3-4 3.4-3.1 6.9-6.1c4.1-3.5 8-7.2 12-11q8.9-8.4 18.1-16.6 2.5-2.2 5-4.5 3.7-3.3 7.3-6.6c3.9-3.4 7.7-6.9 11.5-10.4q0.9-1 2-1.9 1.9-1.9 3.8-3.7c5.4-5.1 10.1-8.8 17.4-10.3z"/>
	<path class="s1" d="m1039 938c49.6 0 49.6 0 59.6 9.5 7.2 7.9 9 15.3 8.9 25.8-0.5 11.3-4.2 18.9-12.5 26.7q-1.5 1-3 2c1.3 4.8 3.4 8.5 6 12.7 2.7 4.5 5.3 9.2 7.9 13.9q0.7 1.4 1.5 2.8 1.8 3.3 3.6 6.6c2.8-2.8 3.3-6.1 4.3-9.8 1.5-5.3 3.1-10.5 5.1-15.6 2-5 3.7-10.1 5.3-15.2 2.6-8.2 5.3-16.4 8-24.6q0.6-1.7 1.1-3.5c1.6-4.6 3.1-9.1 4.8-13.7 1.8-4.6 3.1-9.2 4.5-13.9 0.9-2.7 0.9-2.7 1.9-3.7q2.7-0.1 5.3-0.1 1.7 0 3.3 0c1.7 0 1.7 0 3.5 0 1.7 0 1.7 0 3.4 0.1q4.3 0 8.5 0 0.3 1 0.6 2 1.3 4.7 2.6 9.3c0.5 1.6 0.5 1.6 1 3.2 1.7 5.9 3.5 11.7 5.7 17.4 1.3 3.8 2.6 7.6 3.8 11.4q0.4 1.1 0.7 2.2 0.8 2.4 1.5 4.7c5.4 16.7 11 33.4 17.2 49.8q0.6 1.4 1.1 2.9 0.6 1.3 1.1 2.7c0.7 2.4 0.7 2.4 0.7 6.4-7.6 0-15.2 0-23 0-2.6-7.9-5.3-15.8-8-24-11.9-0.3-23.8-0.7-36-1-0.7 3.3-1.3 6.6-2 10-0.8 2.7-1.7 5.4-2.6 8.1q-0.4 1-0.7 2.1-0.9 2.4-1.7 4.8-8.6 0.4-17.2 0.5-2.9 0.1-5.8 0.3c-16.2 0.7-16.2 0.7-20.5-2.8-1.6-2.6-2.6-5.1-3.5-8q-1-2-2.1-4-0.9-1.9-1.8-3.7-2-4.2-4.1-8.3c-0.5-1-0.5-1-1-2.1q-1.6-2.9-3.1-5.8-0.9-1.7-1.8-3.5c-2.2-3.3-2.2-3.3-8.1-3.6-0.3 13.5-0.7 27.1-1 41-7.6 0-15.2 0-23 0 0-37 0-73.9 0-112z"/>
	<path class="s2" d="m1040 660c5 1.5 8 4.5 11.6 8.1 5.1 4.8 10.3 9.4 15.8 13.8 3.5 2.8 6.8 5.8 10.1 8.9 2.3 2.2 2.3 2.2 4.2 3.1 2.5 1.5 3.7 2.7 5.3 5.1 1.1 5.8 0.9 11.5 0.8 17.3q0 2.7 0 5.3 0 7.3-0.1 14.6 0 7.5 0 15.1-0.1 14.4-0.2 28.7-0.1 16.4-0.1 32.7-0.2 33.7-0.4 67.3-10 0-20 0.1-3.4 0-6.8 0-4.9 0-9.8 0-1.5 0-3.1 0-1.4 0-2.9 0-1.2 0-2.5 0c-1.9-0.1-1.9-0.1-2.9-1.1q-0.1-4-0.1-8 0-1.2 0-2.5 0-4.3 0-8.6 0-3.1 0-6.1 0-8.4 0-16.7 0-8.7 0-17.4 0-14.7 0-29.3 0-16.9 0-33.9 0-14.5 0-29 0-8.7 0-17.4 0-8.1 0-16.3 0-3 0-6 0-4.1 0-8.2 0-1.2 0-2.4c0-4.2 0.3-8.1 1.1-12.2q0.1-2.5 0-5z"/>
	<path class="s3" d="m519.1 664.2c1.9 0.8 1.9 0.8 3.9 2.8 0.2 2.8 0.3 5.5 0.2 8.3q0 1.3 0 2.7 0 4.4 0 8.8 0 3.1 0 6.3 0 8.5 0 17.1 0 9 0 17.9 0 17-0.1 33.9 0 19.3 0 38.6 0 39.7-0.1 79.4c-15.8 0-31.7 0-48 0q-0.3-35.2-0.5-70.3-0.1-16.4-0.3-32.7-0.1-14.2-0.1-28.5-0.1-7.5-0.2-15-0.1-7.1 0-14.2 0-2.6-0.1-5.2c-0.3-13.1-0.3-13.1 3.4-18.2 6.4-5.9 6.4-5.9 9.8-5.9q0-1 0-2c1.9-1.6 3.7-3 5.7-4.4 5.5-4.2 10.8-8.5 16-12.9 7.8-6.7 7.8-6.7 10.4-6.5z"/>
	<path class="s4" d="m377.3 935.7q1.1 0 2.2 0c10.2 0.2 17.4 3.1 25.5 9.3 1 0.7 1 0.7 2.1 1.5 10 7.9 16.8 21 18.9 33.5 1.9 18.9-0.5 36.4-12 52-9.6 11.1-18.9 18-33.8 19.4-11.6 0.5-21.5-1.8-30.5-9.6-14.1-13.8-19.9-28-20.1-47.7 0-19 6.3-33.5 19.2-47.4 7.7-7.5 17.8-11.1 28.4-11z"/>
	<path class="s5" d="m1211 938c44.5 0 89.1 0 135 0 0 7.3 0 14.5 0 22-8.9 0-17.8 0-27 0 0 29.7 0 59.4 0 90-7.6 0-15.2 0-23 0 0-29.7 0-59.4 0-90-20.5-0.3-40.9-0.7-62-1 0 9.2 0 18.5 0 28 9.9 0 19.8 0 30 0 0 6.9 0 13.9 0 21-9.9 0-19.8 0-30 0 0 13.9 0 27.7 0 42-7.6 0-15.2 0-23 0 0-37 0-73.9 0-112z"/>
	<path class="s6" d="m437.1 937.9q1.4 0 2.8 0 1.5 0 3 0 1.6 0 3.2 0c1.5 0 1.5 0 3.1 0.1q3.9 0 7.8 0c3.9 7.4 7.3 14.9 10.4 22.7 1.7 4.2 3.6 8.4 5.5 12.6 2.7 5.6 5 11.3 7.4 17.1q0.5 1.2 1 2.5c1.8 4.7 3.4 9.3 4.7 14.1q1 0 2 0 0.1-1 0.3-2c0.9-3.9 2.4-7.5 4-11.2q0.4-1.1 0.9-2.3c2-4.8 4.2-9.5 6.6-14.1 1.3-2.6 2.4-5.3 3.4-8.1 2.5-6.6 5.2-13.1 8.1-19.6q0.6-1.5 1.3-3.1 0.6-1.4 1.3-2.9c0.6-1.3 0.6-1.3 1.1-2.7 1-2 1-2 2-3 7.6 0 15.2 0 23 0 0 37.3 0 74.6 0 113-6.6 0-13.2 0-20 0-0.5-35.6-0.5-35.6-1-72-3.5 8.9-3.5 8.9-7 18q-2.8 6.4-5.6 12.8c-3.4 7.6-6.7 15.2-9.6 23-0.8 2.2-0.8 2.2-1.8 4.2-4.9 0-9.9 0-15 0-5.2-9.8-9.3-19.8-13.5-30q-3.6-8.6-7.3-17.1c-1.5-3.3-2.9-6.6-4.2-9.9 0 23.1 0 46.2 0 70-6.9 0-13.9 0-21 0q0-21.7-0.1-43.4 0-10 0-20.1 0-9.7 0-19.4 0-3.7 0-7.4 0-5.2 0-10.4 0-1.5 0-3.1 0-1.4 0-2.9 0-1.2 0-2.4c0.2-2.7 0.5-2.9 3.2-3z"/>
	<path class="s1" d="m552 938c7.9 0 15.8 0 24 0 2.7 7.3 2.7 7.3 3.5 9.5 2.2 6 4.8 11.7 7.5 17.5 6.1 13.2 11.9 26.4 17 40 6.4-12.5 12.1-25.1 17.5-38q0.6-1.6 1.3-3.2 1.3-3.1 2.6-6.2c1.9-4.8 4-9.6 6.2-14.3 0.6-1.2 0.6-1.2 1.2-2.4 1.2-1.9 1.2-1.9 4.2-2.9 6.6 0 13.2 0 20 0 0 37 0 73.9 0 112-6.9 0-13.9 0-21 0-0.3-22.4-0.7-44.9-1-68-4.1 9.9-4.1 9.9-8.2 19.9q-0.8 2.1-1.7 4.1-1.2 3.2-2.5 6.4c-9 22.3-9 22.3-13.6 24.6-2.4 0.5-2.4 0.5-4.9 0.5q-1.3 0-2.6 0.1c-3.7-0.9-5.1-2.6-7.5-5.6-1.4-2.8-2.5-5.6-3.6-8.6q-1-2.6-2-5.3-0.6-1.4-1.1-2.9c-2.2-5.5-4.6-11-6.9-16.5q-1.2-2.8-2.5-5.7-0.7-1.7-1.5-3.5-0.6-1.5-1.3-3.1c-0.9-2.3-0.9-2.3-2.1-3.4q-0.1-2.5 0-5-1 0-2 0 0.5 1.5 1 3 0.1 3.3 0.1 6.7 0 1 0 2 0 3.4 0 6.7 0 2.3 0 4.6 0 6.1 0 12.2 0 6.2-0.1 12.4 0 12.2 0 24.4c-6.6 0-13.2 0-20 0 0-37 0-73.9 0-112z"/>
	<path class="s5" d="m736 938c47.5 0 47.5 0 58.7 10.6 6.7 7.1 7.8 14.7 7.5 24.3-0.6 8.7-2.9 17.6-9.1 24.1-1.6 1.4-3.4 2.7-5.1 4 0.7 3.9 2.5 7.1 4.4 10.6q0.5 0.9 1 1.9 1.6 3 3.3 6.1 1.1 2 2.1 4 0.6 0.9 1.1 1.9 1 2 2.1 4 2.4 4.4 4.9 8.8 0.8 1.4 1.7 2.9 0.7 1.3 1.5 2.5c0.9 2.3 0.9 2.3-0.1 6.3-7.6 0-15.2 0-23 0-4-6.7-7.8-13.4-11.2-20.5-0.8-1.7-0.8-1.7-1.7-3.4q-1.7-3.4-3.3-6.8-0.7-1.6-1.6-3.2c-0.6-1.5-0.6-1.5-1.3-2.9-1.8-2.6-1.8-2.6-5.6-3q-1.6-0.1-3.3-0.2c0 1.8 0 1.8 0 3.6q0 6.5 0.1 13 0 2.8 0 5.7 0 4 0 8.1 0 1.2 0 2.5 0 3.1-0.1 6.1-0.5 0.5-1 1c-7.3 0-14.5 0-22 0 0-37 0-73.9 0-112z"/>
	<path class="s7" d="m894 937c19.8 0 39.6 0 60 0 0 7.3 0 14.5 0 22-11.5 0-23.1 0-35 0 0 7.9 0 15.8 0 24 6.7 0 6.7 0 13.4-0.1q1.2 0 2.5 0 1.3 0 2.6 0c2.5 0.1 2.5 0.1 7.5 1.1 0 6.6 0 13.2 0 20-12.9-0.5-12.9-0.5-26-1 0 8.3 0 16.5 0 25 11.5-0.3 23.1-0.7 35-1 0 7.6 0 15.2 0 23-19.8 0-39.6 0-60 0 0-37.3 0-74.6 0-113z"/>
	<path class="s1" d="m669 937c19.8 0 39.6 0 60 0 0 6.9 0 13.9 0 21-11.9 0-23.8 0-36 0 0 8.3 0 16.5 0 25 8.6 0 17.2 0 26 0 0 6.6 0 13.2 0 20-8.6 0.3-17.2 0.7-26 1-0.3 8.3-0.7 16.5-1 25 12.2 0 24.4 0 37 0 0 6.9 0 13.9 0 21-19.8 0-39.6 0-60 0 0-37.3 0-74.6 0-113z"/>
	<path class="s8" d="m879 941c6.1 3.9 10.7 9.6 14 16q0 1.5 0 3-3.4 2.1-6.8 4.1c-0.9 0.5-0.9 0.5-1.9 1.1-4.8 2.9-4.8 2.9-7.4 2.6-2.9-1.2-4.7-3.5-6.9-5.8-5.3-3.4-12-2.8-18-2-6 2.6-10.9 8.3-14 14-2.4 6.4-2.3 12.6-2.3 19.4q0 1.6-0.1 3.3c0 9.9 2.1 18.4 8.4 26.3 6.2 4.7 13.5 4.8 21 4 4.5-1.7 7.9-3.9 11.3-7.3q0.8-0.8 1.7-1.7 2 0 4 0c2.2 2.2 2.2 2.2 4.3 5.2q1.1 1.4 2.2 2.9c1.5 2.9 1.5 2.9 1.4 5.5-2.9 7.8-8.9 12.4-15.9 16.4q-1.3 0.8-2.6 1.6c-9 3.7-22.2 2.8-31.1-0.5-7.8-3.9-14.2-10.1-19.3-17.1q0-1 0-2-1 0-2 0-1.4-4-2.9-7.9-0.4-1.1-0.8-2.3c-6.7-18.7-6.5-38.6 1.7-56.8 6.3-12 15.7-21.8 28.8-26.2 11.5-2.8 22.6-1.1 33.2 4.2z"/>
	<path class="s1" d="m1021.4 941.2c4.2 2.5 7.9 5.6 11.6 8.8-1.3 4.4-3 8.3-5.1 12.4q-0.8 1.6-1.7 3.2-0.6 1.2-1.2 2.4c-3.6-0.6-6.3-1.5-9.4-3.4-6.5-3.7-12.1-5.5-19.6-4.6-2.5 0.8-4.6 1.8-7 3q-1.5 0.5-3 1 0 1 0 2-1 0-2 0-0.4 1-0.7 1.9c-1.4 3.3-2.9 6.6-4.4 9.8-4.6 11.6-1.9 25 2.1 36.3 2.7 5 6.3 8.8 11 12q0.9 0.6 1.8 1.2c6.1 2.1 11.3 0.9 16.9-1.8 4.1-2.4 7.7-5.4 11.3-8.4 2.9 2.8 5.2 5.5 7.4 8.9q0.8 1.3 1.6 2.6c1 2.5 1 2.5 0.3 5.1-4.4 8.2-11.7 13-20.1 16.6-9.2 2.3-21.5 2.4-30.1-1.9-14.2-8.8-22.9-21.8-27.6-37.9-3.5-15.8-2.2-33 5.5-47.4q0.6-1.2 1.3-2.5c6.4-11.5 15.3-18.8 27.6-23.6 11.2-3.1 23.3-0.9 33.5 4.3z"/>
	<path class="s4" d="m316.1 941c3.9 2.7 7.5 5.6 10.9 9-0.6 4.2-2 7.1-4.3 10.7q-0.9 1.4-1.8 2.9c-1.9 2.4-3.1 3.3-5.9 4.4q-0.8-0.6-1.7-1.2c-6.8-4.6-12.8-8.5-21.2-8.2-3.6 0.7-5.4 2.8-8.1 5.4q-1.3 0.4-2.6 0.7c-4.6 2.4-6.4 7.6-8.2 12.4-1.9 7.1-1.4 14.6-1.2 21.9q0 1.1 0 2.3c0.5 8.3 5.7 16.6 11 22.7 4.4 3 8.7 3.2 14 3 6.1-1.5 10.8-4.5 16-8q2.5-0.6 5-1 2 2.6 3.9 5.2 1.1 1.4 2.3 2.9c1.8 2.9 2.8 4.5 2.8 7.9-5.5 8.3-15.5 14.3-25 16.5-13 2.1-23.1-0.1-33.8-7.8-6.6-5.2-10.8-11.3-14.6-18.6q-0.5-1-1-2c-4.6-9.4-4.9-18.9-4.9-29.2q0-1.7 0-3.4c0-6.2 0.5-11.6 2.3-17.5 0.4-1.4 0.4-1.4 0.8-2.7 1.8-5.8 4.4-10.5 7.8-15.5q0.6-0.8 1.2-1.7c1-1.4 2.1-2.8 3.2-4.1q1 0 2 0 0-1 0-2c12.9-12.9 35.9-13.8 51.1-5z"/>
	<path class="s9" d="m707.6 934.8q2.6-0.1 5.2-0.1 3.7 0 7.4 0 1.1 0 2.2-0.1c5.1 0.1 5.1 0.1 7.6 1.7 1.2 2 1.4 3.3 1.5 5.7q0.1 1.1 0.1 2.3 0.1 1.2 0.1 2.4 0 1.2 0.1 2.4 0.1 3 0.2 5.9 0.2-1.9 0.4-3.9 0.3-2.5 0.5-5 0.2-1.3 0.3-2.6 0.1-1.2 0.3-2.5 0.1-1.1 0.2-2.2c0.3-1.8 0.3-1.8 1.3-2.8q4.3-0.1 8.6-0.1c1.3 0 1.3 0 2.6 0q4.2 0 8.4 0 2.8 0 5.6 0.1 6.9 0 13.8 0 0 0.5 0 1c-12.5 0-25.1 0-38 0 0 4.5 0 8.9 0 13.5q0.1 9.1 0.1 18.2 0 1.2 0 2.4c0 26.6-0.3 53.3-1.1 79.9q-1-0.5-2-1c-0.4-2.9-0.4-2.9-0.7-6.4-0.1-1.8-0.1-1.8-0.2-3.6-0.1-3-0.1-3 0.9-5q-1 0-2 0c0 4.9 0 9.9 0 15q-0.5 0-1 0c0-7.3 0-14.5 0-22-2.2 0.2-4.4 0.3-6.6 0.5-10.5 0.7-20.9 0.6-31.4 0.5q0-6.2-0.1-12.4 0-1.8 0-3.6c0-1.7 0-1.7 0-3.4q0-1.6 0-3.2c0.1-2.4 0.1-2.4 1.1-3.4q2.9-0.1 5.8-0.1c1.7 0 1.7 0 3.5 0q1.9 0 3.8 0c1.8 0 1.8 0 3.7 0.1q4.6 0 9.2 0c0-6.6 0-13.2 0-20-8.6 0-17.2 0-26 0 0-8.3 0-16.5 0-25 11.9 0 23.8 0 36 0 0-6.9 0-13.9 0-21-19.8 0-39.6 0-60 0 0 8 0 16 0.1 24.2q0 7.6 0 15.2 0 12 0.1 24 0 9.7 0 19.4 0 3.7 0 7.4 0 5.2 0 10.4c0 1.5 0 1.5 0 3.1q0 1.4 0 2.8 0 1.3 0 2.5c-0.2 2-0.2 2-2.2 4q0-22.1-0.1-44.1 0-10.3 0-20.5 0-9.9 0-19.8 0-3.8 0-7.6 0-5.2 0-10.5 0-1.6 0-3.2c0-1.4 0-1.4 0-2.9q0-1.2 0-2.5c0.1-1.9 0.1-1.9 1.1-2.9 13.1-1.2 26.4-1.1 39.6-1.2z"/>
	<path class="s10" d="m392 962c7.4 6.3 9.9 13.6 11 23 0.9 13.6 0 25.1-9 36-4.7 4.8-8.2 7.1-15.1 7.3-7.3-0.1-12.5-2-17.7-7-8.4-12.7-9.5-28.7-6.8-43.6 1.7-6 4.7-10.8 9.6-14.7 1.3-1.1 1.3-1.1 2.6-2.2 7.5-5.5 17.9-3.2 25.4 1.2z"/>
	<path class="s11" d="m955 939q0.5 0 1 0 0.1 1.8 0.2 3.6 0.1 2.4 0.2 4.7 0.1 1.2 0.2 2.4 0 1.1 0.1 2.3c0 1 0 1 0.1 2.1 0.2 2.1 0.2 2.1 1.2 4.9q1 0.5 2 1c-1 4.5-2.6 8.9-4.2 13.2-6.3 18.6-2.2 37.3 5.2 54.8-1 0.5-1 0.5-2 1q-0.5-1-1-2c-0.8 2.8-1.2 5.4-1.3 8.3q-0.1 1.2-0.1 2.5-0.1 1.2-0.2 2.5c0 1.2 0 1.2-0.1 2.5q-0.2 3.1-0.3 6.2-0.5 0-1 0c0-7.3 0-14.5 0-22q-1.5 0.5-3 1-3.8 0.1-7.5 0.1-1.1 0-2.2 0-3.5 0-7 0-2.4 0-4.7-0.1-5.8 0-11.6 0c0-8.2 0-16.5 0-25 3.9 0 3.9 0 7.9-0.1q1.2 0 2.5 0 1 0 2 0 1 0 2 0c3.9 0.2 7.7 0.7 11.6 1.1 0-6.6 0-13.2 0-20-12.9-0.5-12.9-0.5-26-1 0-7.9 0-15.8 0-24 17.3-0.5 17.3-0.5 35-1 0.3-6.3 0.7-12.5 1-19z"/>
	<path class="s12" d="m1063 958c12.6 0 12.6 0 17.9 4.4 3.7 4.5 3.6 9 3.1 14.6-1.2 5.1-2.3 8.3-6 12-5 0-9.9 0-15 0 0-10.2 0-20.5 0-31z"/>
	<path class="s13" d="m759 959c13 0 13 0 18 3 4.1 5.3 3.7 10.6 3 17-0.8 2.6-1.7 4.6-3 7q-1 0-2 0 0 1 0 2c-4.8 2.4-10.7 1-16 1 0-9.9 0-19.8 0-30z"/>
	<path class="s14" d="m1156 967q1.5 0 3 0 1.6 5.7 3.3 11.3 0.8 2.8 1.6 5.7 0.5 1.8 1.1 3.7c0.4 1.7 0.4 1.7 0.9 3.4 1.5 5.3 2.8 10.6 4.1 15.9-8.3 0-16.5 0-25 0 3.2-13.5 7.1-26.7 11-40z"/>
	<path class="s15" d="m1211 938c44.5 0 89.1 0 135 0 0 4 0 7.9 0 12-2-2-2-2-2.2-4.2q0-1.2 0.1-2.4 0-1.2 0-2.5 0.1-0.9 0.1-1.9c-1.1 0-1.1 0-2.1 0.1-27 1.1-53.9 1-80.9 1-15.5-0.1-31-0.1-47-0.1-0.3 36-0.7 71.9-1 109 6.3 0 12.5 0 19 0 0-13.2 0-26.4 0-40q0.5 0 1 0c0 13.5 0 27.1 0 41-7.3 0-14.5 0-22 0 0-37 0-73.9 0-112z"/>
	<path class="s16" d="m707.6 934.8q2.6-0.1 5.2-0.1 3.7 0 7.4 0 1.1 0 2.2-0.1c2.9 0 5.1 0.1 7.6 1.6 1.3 2.4 1.4 4 1.3 6.7q0 1.3 0 2.8 0 1.4-0.1 2.9 0 1.5 0 3c0 7.2 0 7.2-1.2 8.4q-4 0.1-8 0.1-1.2 0-2.4 0-3.8 0-7.7 0-2.6 0-5.2-0.1-6.3 0-12.7 0c0 7.3 0 14.5 0 22 12.4-0.5 12.4-0.5 25-1q0 1 0 2c-8.6 0-17.2 0-26 0 0-8.3 0-16.5 0-25 11.9 0 23.8 0 36 0 0-6.9 0-13.9 0-21-19.8 0-39.6 0-60 0 0 8 0 16 0.1 24.2q0 7.6 0 15.2 0 12 0.1 24 0 9.7 0 19.4 0 3.7 0 7.4 0 5.2 0 10.4c0 1.5 0 1.5 0 3.1q0 1.4 0 2.8 0 1.3 0 2.5c-0.2 2-0.2 2-2.2 4q0-22.1-0.1-44.1 0-10.3 0-20.5 0-9.9 0-19.8 0-3.8 0-7.6 0-5.2 0-10.5 0-1.6 0-3.2c0-1.4 0-1.4 0-2.9q0-1.2 0-2.5c0.1-1.9 0.1-1.9 1.1-2.9 13.1-1.2 26.4-1.1 39.6-1.2z"/>
	<path class="s17" d="m621 695q1 0.5 2 1c0 60.7 0 121.4 0 184q-1.5 0.5-3 1 0 1.5 0 3-0.7-0.2-1.5-0.5c-3.4-0.7-6.8-0.7-10.3-0.8q-1.1 0-2.3-0.1-3.6-0.1-7.1-0.2-2.5 0-4.9-0.1-6-0.2-11.9-0.3c10.8-7.2 26-2 39-2 0-61 0-122.1 0-185z"/>
	<path class="s18" d="m524 665c1.3 4 1.2 8.1 1.2 12.2q0 1.3 0 2.6 0.1 4.1 0.1 8.3 0 3 0.1 6 0.1 8.1 0.1 16.1 0.1 5 0.1 10.1c0.3 30.4 0.5 60.8 0.5 91.3q0 3.9 0 7.8c0.1 15.2 0.1 30.5-0.5 45.8q0 1.4-0.1 3 0 1.3-0.1 2.6c0 1.2 0 1.2-0.1 2.4-0.3 1.8-0.3 1.8-2.3 3.8q0-41.2-0.1-82.5 0-19.1 0-38.3 0-16.7 0-33.3 0-8.9 0-17.7 0-8.3 0-16.6 0-3.1 0-6.2 0-4.1 0-8.3 0-1.2 0-2.4c0-5.6 0-5.6 1.1-6.7z"/>
	<path class="s19" d="m784 712q0.5 0 1 0c0 54.8 0 109.6 0 166q1 0 2 0 0 1 0 2-2 0-4 0 0-32.6-0.1-65.3 0-15.1 0-30.3 0-13.2 0-26.4 0-7 0-14 0-6.5 0-13.1 0-2.4 0-4.9 0-3.2 0-6.5 0-1.9 0-3.8c0.1-2.7 0.1-2.7 1.1-3.7z"/>
	<path class="s20" d="m573 776q0.5 0 1 0c0 33.7 0 67.3 0 102 14.9 0 29.7 0 45 0 0-5.6 0-11.2 0-17q1-1 2-2c0 6.9 0 13.9 0 21-16.2 0-32.3 0-49 0-0.1-34.7 0-69.3 1-104z"/>
	<path class="s21" d="m1210 938q0.5 0 1 0 0 19.5 0.1 38.9 0 9.1 0 18.1 0 8.8 0 17.5 0 3.3 0 6.6 0 4.7 0 9.4 0 1.3 0 2.7c0 6.3-0.4 12.5-1.1 18.8q-0.5 0-1 0c-0.3-3.6-0.7-7.3-1-11q-3 0-6 0-1-3.2-2-6.3-0.6-1.8-1.1-3.6c-0.9-3.1-0.9-3.1-0.9-6.1q1 0 2 0 0.5 1.5 1 3c1-1 1-1 2-2q2-1.1 4-2c-0.1-1.4-0.1-1.4-0.1-2.9 0.1-3.1 0.1-3.1 2.1-5.1 0.2-2.4 0.3-4.8 0.3-7.2q0-1.1 0-2.3 0.1-3.6 0.1-7.3 0-2.6 0.1-5.1 0-6.7 0.1-13.5 0.1-6.8 0.1-13.7 0.2-13.4 0.3-26.9z"/>
	<path class="s22" d="m670 958q0.5 0 1 0c0.3 29.7 0.7 59.4 1 90 18.1 0 36.3 0 55 0 0-5.3 0-10.6 0-16-11.2-0.3-22.4-0.7-34-1q0-0.5 0-1c12-1 23.9-1.1 36-1 0 6.9 0 13.9 0 21-19.8 0-39.6 0-60 0 0.3-30.4 0.7-60.7 1-92z"/>
	<path class="s19" d="m1085 791q1 0 2 0c0 29.4 0 58.7 0 89-15.5 0-31 0-47 0q0-0.5 0-1c8.7-1.2 17.4-1.1 26.1-1.1q2.2 0 4.4 0.1 5.2 0 10.5 0 0-1 0-2 1.5-0.5 3-1c0.3-27.7 0.7-55.4 1-84z"/>
	<path class="s23" d="m896 944q0.5 0 1 0 0 13.3 0.1 26.5 0 6.2 0 12.3c0 21.8-0.3 43.5-1.1 65.2 3 0 5.9 0 9 0q0 1 0 2c-3.6 0-7.3 0-11 0-0.1-17.5 0.1-35 0.4-52.5q0.1-5.6 0.1-11.2 0.1-4.4 0.2-8.8 0-3 0-6.1c0.2-9.1 0.7-18.3 1.3-27.4z"/>
	<path class="s24" d="m1083 697q2 1 4 2 0.1 17.1 0.1 34.3 0 7.9 0.1 15.9 0 7.6 0 15.3 0 3 0 5.9 0 4.1 0 8.2c0 1.2 0 1.2 0 2.4 0 3.9 0 5.7-2.2 9 0-28.4 0-56.8 0-86q-1.5 0.5-3 1c-0.1-3 0-5.1 1-8z"/>
	<path class="s25" d="m669 937c19.8 0 39.6 0 60 0 0 6.9 0 13.9 0 21q-7.2 0.1-14.4 0.1-2.5 0-4.9 0.1-3.5 0-7.1 0-1.1 0-2.2 0c-1.8 0-3.6-0.1-5.4-0.2q-1-1-2-2c11.2 0 22.4 0 34 0 0-5.3 0-10.6 0-16q0.5-1 1-2c-19.5 0-38.9 0-59 0q0-0.5 0-1z"/>
	<path class="s26" d="m732 867q1 0 2 0c0 4.3 0 8.6 0 13-21.1 0-42.2 0-64 0 0-2.6 0-5.3 0-8q0.5 0 1 0 0 3 0 6c20.1 0 40.3 0 61 0 0-3.6 0-7.3 0-11z"/>
	<path class="s27" d="m1156 967q1.5 0 3 0 1 3.3 2 6.6 0.6 1.8 1.1 3.7c0.9 3.7 1.1 6.9 0.9 10.7-2.3 0.7-4.6 1.3-7 2q-0.5-1.5-1-3 1.5 0 3 0 0-1 0-2-1.5-0.5-3-1-0.5 1.5-1 3-1 0-2 0c0.6-7 2-13.3 4-20z"/>
	<path class="s28" d="m1233 959q0.5 0 1 0c0 9.2 0 18.5 0 28 9.9 0 19.8 0 30 0 0 6.9 0 13.9 0 21-2.9 0-5.9 0-8.9 0.1q-1.4 0-2.8 0c-5.5 0-10.8-0.4-16.3-1.1q0-0.5 0-1c8.9 0 17.8 0 27 0 0-5.6 0-11.2 0-17-9.9 0.3-19.8 0.7-30 1-1.7-10.3-1.2-20.6 0-31z"/>
	<path class="s29" d="m730 945q0.5 0 1 0 0 3.5 0.1 6.9 0 2 0 3.9c-0.1 3.2-0.1 3.2-1.1 4.2q-4 0.1-8 0.1-1.2 0-2.4 0-3.8 0-7.7 0-2.6 0-5.2-0.1-6.3 0-12.7 0c0 7.3 0 14.5 0 22 12.4-0.5 12.4-0.5 25-1q0 1 0 2c-8.6 0-17.2 0-26 0 0-8.3 0-16.5 0-25 11.9 0 23.8 0 36 0 0.5-6.4 0.5-6.4 1-13z"/>
	<path class="s30" d="m1063 958c12.3 0 12.3 0 17.9 4.2 2.6 3.5 2.5 5.6 2.1 9.8q-0.5 0-1 0 0-2.5 0-5-1 0-2 0-2-2.5-4-5c-3-1.6-3-1.6-11-2 0 8.9 0 17.8 0 27 9.1-0.7 9.1-0.7 14-2 1.3-2 1.3-2 2-4q0.5 1.5 1 3c-1.3 1.6-2.6 3.3-4 5-5 0-9.9 0-15 0 0-10.2 0-20.5 0-31z"/>
	<path class="s31" d="m773.4 478.4c4.4 0.7 6.6 2.6 9.6 5.7 0.8 0.7 0.8 0.7 1.6 1.5q2.2 2.2 4.4 4.4 1.1 1.1 2.3 2.3 2.4 2.3 4.7 4.7-0.5 1-1 2-0.8-0.8-1.6-1.6c-5.1-5.4-5.1-5.4-11.4-9.4q-1 0-2 0-1-2.5-2-5c-2.7-0.8-4.3-1.2-7-1-3.2 1.8-5.5 4.4-8 7q-1.8 1.8-3.6 3.6-2.9 2.9-5.9 5.9c-5.2 5.2-10.3 10.4-16.5 14.5 0-3 0-3 1.5-4.6 1-0.8 1-0.8 2.1-1.6 2.7-2.4 5.4-4.7 7.9-7.3 3-3 6.1-5.8 9.3-8.5 3.5-3.1 6.5-6.6 9.6-10.1 2.6-1.9 2.6-1.9 6-2.5z"/>
	<path class="s32" d="m1317 982q0.5 0 1 0c0.8 22.7 1.1 45.3 1 68-7.3 0-14.5 0-22 0q0-1 0-2c6.3 0 12.5 0 19 0 0.3-21.8 0.7-43.6 1-66z"/>
	<path class="s33" d="m734 964q0.5 0 1 0c0 28.7 0 57.4 0 87q-1-0.5-2-1c-0.4-2.9-0.4-2.9-0.7-6.4-0.1-1.8-0.1-1.8-0.2-3.6-0.1-3-0.1-3 0.9-5q-1 0-2 0c0 5 0 9.9 0 15q-0.5 0-1 0c0-6.9 0-13.9 0-21q1 1 2 2c1-3.4 1.2-6.6 1.2-10.2 0-1.9 0-1.9 0.1-3.9q0-2 0-4.1 0-2.1 0.1-4.2 0.1-5.5 0.1-11.1 0.1-5.6 0.2-11.3 0.2-11.1 0.3-22.2z"/>
	<path class="s34" d="m894 937c19.8 0 39.6 0 60 0q0 0.5 0 1c-11.2 0.9-22.3 1.3-33.5 1.6q-4.3 0.1-8.5 0.2-2.7 0-5.4 0.1-1.2 0-2.5 0.1c-5.9 0.1-5.9 0.1-8.1-1 0 6.9 0 13.9 0 21q-0.5 0-1 0c-0.3-7.6-0.7-15.2-1-23z"/>
	<path class="s27" d="m454 978c2 2 2.7 3.3 3.7 5.9q0.4 1 0.8 2c0.6 2.4 0.3 3.8-0.5 6.1q-0.5-1-1-2c0 19.1 0 38.3 0 58-1 0.5-1 0.5-2 1-0.6-23.7-1.2-47.3-1-71z"/>
	<path class="s35" d="m1061 1009q0.5 0 1 0c0 13.5 0 27.1 0 41-7.3 0-14.5 0-22 0 0-6.6 0-13.2 0-20q0.5 0 1 0c0.8 6.2 1 11.6 1 18 5.9-0.3 11.9-0.7 18-1q0-2.3 0-4.8c-0.1-11.1-0.1-22.1 1-33.2z"/>
	<path class="s36" d="m626 615q0 1.5 0 3c-1 0.5-1 0.5-2 1-1.6 7.1-1.1 14.7-1.1 21.9q0 1.6 0 3.3 0.1 5.2 0.1 10.4 0 6.9 0.1 13.8 0 1.6 0 3.2c0 5.6-0.3 10.9-1.1 16.4q-0.5 0-1 0-0.1-13.6-0.2-27.2 0-6.3 0-12.7-0.1-6.1-0.1-12.2 0-2.3 0-4.6 0-3.3 0-6.5-0.1-1.9-0.1-3.8c0.4-3 0.4-3 1.8-4.9 1.6-1.1 1.6-1.1 3.6-1.1z"/>
	<path class="s37" d="m519 978q0.5 0 1 0 0.1 11.9 0.1 23.7 0 4 0.1 8.1 0 5.8 0 11.6 0 1.8 0 3.6 0 1.7 0 3.4 0 1.5 0 3c-0.2 2.7-0.8 4.3-2.2 6.6-0.9-16.4-1-32.6 0-49q-1 0-2 0c0.5-4.1 0.9-7.5 3-11z"/>
	<path class="s38" d="m635 980q0.5 0 1 0c0.1 23.4-0.1 46.7-1 70q-0.5 0-1 0c-0.3-19.5-0.7-38.9-1-59q-1 2.5-2 5c-1.2-2.9-1-4 0-7q0.7-1.6 1.4-3.3 0.7-1.6 1.5-3.2 0.5-1.2 1.1-2.5z"/>
	<path class="s39" d="m955 939q0.5 0 1 0 0.1 1.8 0.2 3.6 0.1 2.4 0.2 4.7 0.1 1.2 0.2 2.4 0 1.1 0.1 2.3c0 1 0 1 0.1 2.1 0.2 2.1 0.2 2.1 1.2 4.9q1 0.5 2 1c-0.4 1.9-0.4 1.9-1 4-1 0.5-1 0.5-2 1q0.5-2 1-4c-18.3-0.5-18.3-0.5-37-1 0 6.9 0 13.9 0 21-1 0.5-1 0.5-2 1 0-7.6 0-15.2 0-23 17.3-0.5 17.3-0.5 35-1 0.3-6.3 0.7-12.5 1-19z"/>
	<path class="s40" d="m759 1010c2.3 0 4.6 0 7 0 2.3 2.5 2.3 2.5 4 5.8q0.9 1.5 1.8 3.2c1.2 3 1.5 4.1 0.2 7-2.8-2.3-3.5-4.1-4.2-7.7q-0.2-1.2-0.5-2.4-0.1-1-0.3-1.9-1 0-2 0 0-1 0-2-2 0-4 0 0 1.6 0 3.3 0.1 6 0.1 12 0 2.6 0.1 5.2 0 3.7 0 7.4 0 1.2 0 2.4c0 1.9-0.1 3.8-0.2 5.7q-1 1-2 2c0-13.2 0-26.4 0-40z"/>
	<path class="s41" d="m620 859q0.5 0 1 0c0 6.9 0 13.9 0 21-15.5 0-31 0-47 0q0-0.5 0-1c10.2-0.9 20.2-1.1 30.4-1.1q2.1 0 4.3 0.1 5.1 0 10.3 0 0-1.8 0-3.6 0-2.4-0.1-4.8 0-1.2 0-2.4c0-6 0-6 1.1-8.2z"/>
	<path class="s42" d="m475 751q1 0 2 0c0.7 18.7 1.3 37.3 0 56q-1 0-2 0c0-18.5 0-37 0-56z"/>
	<path class="s43" d="m633 990q0.5 0 1 0c0 5.6 0 11.2 0 17q-3.5 0.3-6.9 0.6-1.1 0.2-2.1 0.4-0.5 1-1 2c0.6-5.8 2.8-10.7 5-16q1 0 2 0 1-2 2-4z"/>
	<path class="s44" d="m969 597c4.3 1.7 7.3 4.8 10.6 7.9q0.8 0.8 1.7 1.7 2.4 2.2 4.7 4.4 0.8 0.6 1.6 1.3c1.9 2.3 1.8 3.6 1.7 6.5q0 1.5 0 3 0 1.6 0 3.2 0 1.6 0 3.3-0.1 5.2-0.1 10.4 0 3.5-0.1 7 0 8.7-0.1 17.3-0.5 0-1 0c-0.3-14.9-0.7-29.7-1-45q-1 0-2 0-0.4-1-0.8-1.9-0.5-1.3-1.1-2.5-0.5-1.3-1-2.5c-0.9-2.3-0.9-2.3-3.1-3.1q0-1 0-2-0.8-0.3-1.6-0.7c-3.2-1.8-5.7-3.8-8.4-6.3q0-1 0-2z"/>
	<path class="s45" d="m1133 1040c1 3 1 3-1 10-13.5 0-27.1 0-41 0q0-1 0-2c12.9 0 25.7 0 39 0q0-1 0-2-1 0-2 0 0-1 0-2 2 0 4 0 0.5-2 1-4z"/>
	<path class="s46" d="m711 592c0 3 0 3-2.1 5.5q-1.5 1.4-2.9 2.8c-0.7 0.7-0.7 0.7-1.5 1.4-11.7 11.3-11.7 11.3-14.5 11.3-1.1-3.3-0.9-5.1 0.4-8.3q0.5-1 0.9-2.1 0.3-0.8 0.7-1.6 1.9 0.3 3.9 0.6c4.9 0 7.1-1.8 10.7-5.1q2.2-2.2 4.4-4.5z"/>
	<path class="s41" d="m955 974q1 0 2 0-0.5 1.9-0.9 3.8c-1.7 8.3-1.8 16.8-2.1 25.2q2-0.5 4-1-0.8 2.4-1.7 4.8c-0.4 3 0.3 5.1 1.1 8q0.5 1.4 0.9 2.9 0.3 1.2 0.7 2.3-1 0-2 0-1-2.8-1.9-5.6-0.6-1.5-1.1-3.1c-3.3-11-4.3-26.7 1-37.3z"/>
	<path class="s47" d="m524 820q0.5 0 1 0c0.7 14.9 1.3 29.9 0.7 44.8q-0.1 1.5-0.1 3.1-0.1 1.3-0.2 2.7c0 1.2 0 1.2-0.1 2.5-0.3 1.9-0.3 1.9-2.3 3.9-0.1-19 0.2-38 1-57z"/>
	<path class="s48" d="m1063 1008c6 1 6 1 8 3q0 2 0 4-3 0.5-6 1c-0.3 11.2-0.7 22.4-1 34q-0.5 0-1 0c0-13.9 0-27.7 0-42z"/>
	<path class="s49" d="m1312 933c0.5 2 0.5 2 1 4-11.5 0-23.1 0-35 0q0-0.5 0-1c4.3 0 8.6 0 13 0q0-1 0-2 3.3-0.3 6.6-0.5c1.8-0.1 1.8-0.1 3.7-0.3 3.5-0.2 7.1-0.2 10.7-0.2z"/>
	<path class="s50" d="m475 876q1 0 2 0 0 1 0 2c12.2 0 24.4 0 37 0q0 1 0 2c-12.9 0-25.7 0-39 0q0-2 0-4z"/>
	<path class="s51" d="m695.4 1003c1.6 0 1.6 0 3.2 0.1q1.6 0.1 3.4 0.2c1.8 0.1 1.8 0.1 3.6 0.1q1.7 0.1 3.6 0.2 4.4 0.2 8.8 0.4 0 0.5 0 1c-7.9 0-15.8 0-24 0 0 7.9 0 15.8 0 24q-1 0-2 0 0-6.2-0.1-12.4 0-1.8 0-3.6 0-1.7 0-3.4 0-1.6 0-3.2c0.1-3.2 0.2-3.4 3.5-3.4z"/>
	<path class="s52" d="m892 936q1 0 2 0c0 13.9 0 27.7 0 42q-0.5 0-1 0c0-1.2 0-1.2 0-2.4q-0.2-5.3-0.3-10.7 0-1.8-0.1-3.7c-0.2-6.5-0.6-11.4-3.6-17.2 0.3-3 1.6-5.4 3-8z"/>
	<path fill-rule="evenodd" class="s53" d="m814 455c7.5 5.5 7.5 5.5 10.1 8.3 3.4 3 7.4 3.7 11.9 3.7q-0.3 1.4-0.7 2.8c-0.7 3.2-0.7 3.2 1.1 5.1q0.8 0.5 1.6 1.1-0.5 1-1 2-1.8-1.4-3.5-2.9c-1-0.8-1-0.8-2-1.6q-0.7-0.7-1.5-1.5 0-1 0-2c-0.8-0.3-0.8-0.3-1.6-0.7-3.3-1.8-5.9-4.3-8.7-6.8q-0.8-0.7-1.6-1.5c-1.4-1.3-2.8-2.6-4.1-4q0-1 0-2zm17 13q0 1 0 2 1-0.5 2-1-1-0.5-2-1z"/>
	<path class="s54" d="m943 991q1 0 2 0c0 4.3 0 8.6 0 13-11.4-0.5-11.4-0.5-23-1 1-2 1-2 2.7-2.6 2.6-0.4 5-0.5 7.5-0.5q1.4 0.1 2.8 0.1 1 0 2 0 0 1 0 2 3 0 6 0c0-3.6 0-7.3 0-11z"/>
	<path class="s55" d="m1209 1028q1 0 2 0c0.1 7.4-0.2 14.6-1 22q-0.5 0-1 0c-0.3-3.6-0.7-7.3-1-11q-2.5 0-5 0c0.5-3.8 1.4-6.2 4-9q1 0 2 0 0-1 0-2z"/>
	<path class="s56" d="m327 1016c0.3 2.6 0.7 5.3 1 8q1 0 2 0-0.5 1.1-1 2.3c-1.2 2.7-1.2 2.7-1 5.7-3.8-3.4-6.7-7.4-9-12q0-1.5 0-3 1 0 2 0 0.5 2.5 1 5 1 0 2 0-0.5-1.5-1-3c2.9-3 2.9-3 4-3z"/>
	<path class="s57" d="m718 528q1.5 0.5 3 1c-1 1.5-1 1.5-2 3q-1.5 0-3 0 0 1.5 0 3-2.5 1-5 2 0.5 1.5 1 3-1 0-2 0 0.5 2 1 4-0.8-0.3-1.7-0.6c-3-0.5-4.6 0.3-7.3 1.6 2.8-6.7 10-13.1 16-17z"/>
	<path class="s58" d="m851 605q2 1 4 2 1 0.4 1.9 0.8c2.5 1.4 3.7 2.9 5.5 5.1 2.9 3.5 5.4 5.4 9.6 7.1q0 1.5 0 3c1.5 1.5 1.5 1.5 3.5 2.7q1 0.6 2 1.3c0.7 0.5 0.7 0.5 1.5 1q-0.5 1.5-1 3-0.6-0.6-1.2-1.2-2.9-2.7-5.8-5.4-1-0.9-2.1-1.9c-3.5-3.3-7-6.5-10.6-9.6-2.8-2.4-5.1-4.9-7.3-7.9z"/>
	<path class="s59" d="m514 990q1 0 2 0c1.1 3.3 0.8 5.6 0 9q-1.5 0-3 0-0.2 1.9-0.5 3.8-0.1 1.1-0.3 2.2c-0.3 2.2-0.3 2.2-0.2 5q-2-0.5-4-1c0.5-6.9 3.2-12.7 6-19z"/>
	<path class="s60" d="m553 936c8.3 0 16.5 0 25 0 0.7 2.6 1.3 5.3 2 8 1 1.5 1 1.5 2 3q-0.5 1-1 2 1.5 0.5 3 1 0 1 0 2c-1.9-0.2-1.9-0.2-4-1-1.3-1.9-1.3-1.9-2.3-4.3q-0.5-1.2-1-2.4c-0.7-2.3-0.7-2.3-0.7-6.3-11.4-0.5-11.4-0.5-23-1q0-0.5 0-1z"/>
	<path class="s61" d="m521 835q0.5 0 1 0c0 14.9 0 29.7 0 45-2.6 0-5.3 0-8 0q0-1 0-2 3 0 6 0c0.3-14.2 0.7-28.4 1-43z"/>
	<path class="s62" d="m811 974q1 0 2 0-0.2 1.6-0.5 3.3c-0.7 5.5-0.8 11.1-1.1 16.7q0 1.6-0.1 3.2-0.2 3.9-0.3 7.8c-2-2-2-2-2.2-3.9q0-1.2 0-2.4 0-1.3 0-2.6 0-1.3 0-2.7 0-1.3 0-2.7c0.1-14.6 0.1-14.6 2.2-16.7z"/>
	<path class="s63" d="m956 1020c2.7 2.4 3.8 4.6 5 8-1 0.5-1 0.5-2 1q-0.5-1-1-2c-0.8 2.8-1.2 5.4-1.3 8.3q-0.1 1.2-0.1 2.4-0.1 1.3-0.2 2.5 0 1.3-0.1 2.6-0.2 3.1-0.3 6.2-0.5 0-1 0 0-1-0.1-1.9-0.2-4.4-0.3-8.8-0.1-1.5-0.2-3 0-1.5-0.1-3c0-1.3 0-1.3-0.1-2.7-0.2-2.6-0.6-5.1-1.2-7.6q1 0 2 0 0.5-1 1-2z"/>
	<path class="s64" d="m638 544q1 0.5 2 1-0.8 0.8-1.7 1.6c-1.1 1-1.1 1-2.2 2.1q-1 1-2.2 2.1c-2 2.3-2.8 4.4-3.9 7.2q-1.3 0.4-2.6 0.8c-5 1.8-7.9 5.4-11.4 9.2q-1-0.5-2-1c14.4-14.6 14.4-14.6 20.5-19.8 1.6-1.3 1.6-1.3 3.5-3.2z"/>
	<path class="s65" d="m1039 938c11.2 0 22.4 0 34 0q0 0.5 0 1c-15.3 0.5-15.3 0.5-31 1-0.7 3.3-1.3 6.6-2 10q-0.5 0-1 0c0-4 0-7.9 0-12z"/>
	<path class="s58" d="m624 954q1 0 2 0c-0.5 5.3-1.8 9.5-3.9 14.4-0.4 0.9-0.4 0.9-0.8 1.9-2 4.6-2 4.6-4.3 5.7 0-2.6 0-5.3 0-8q1.5 0 3 0-1-3-2-6 1-0.5 2-1 0 1 0 2 1 0 2 0 0-1.5 0-3 1 0 2 0 0-3 0-6z"/>
	<path fill-rule="evenodd" class="s66" d="m1154 962q1 0.5 2 1 0 1 0 2 3-1 6-2c-0.3 2.6-0.7 5.3-1 8q-1 0-2 0 0-2 0-4-1.5 0-3 0-0.2 1.9-0.4 3.9c-0.2 2.3-0.2 2.3-0.6 4.1-1 0.5-1 0.5-2 1 0.3-2.6 0.7-5.3 1-8q-1 0-2 0c0.9-4.9 0.9-4.9 2-6zm2 0c2 1 2 1 2 1z"/>
	<path class="s67" d="m841 539c4.1 1.7 7.1 4.6 10.3 7.6q0.8 0.8 1.6 1.6 2.1 1.9 4.1 3.8-0.5 1-1 2-1 0-2 0-1.5 0.5-3 1 0-1 0-2-1-0.5-2-1-0.2-1.1-0.3-2.3c-0.9-3.6-2.6-4.7-5.7-6.7q-1.5 0-3 0 0.5-2 1-4z"/>
	<path class="s68" d="m458 984c2 1 2 1 3.1 3.4 0.9 2.6 0.9 2.6 0.9 5.6q1 0 2 0 0.5 1.5 1 3 1 0.5 2 1 0.6 3.5 1 7c0.6 2.4 1.3 4.7 2 7-2.3-2.1-3.6-3.8-4.8-6.7q-0.4-1-0.9-2.1-0.4-1-0.9-2.1-0.9-2.2-1.8-4.3-0.4-1-0.8-2c-0.8-1.9-0.8-1.9-2-4.1-0.8-1.7-0.8-1.7-0.8-5.7z"/>
	<path class="s16" d="m1063 958c6.8-0.2 12.3 0 17.9 4.2 2.6 3.5 2.5 5.6 2.1 9.8q-0.5 0-1 0 0-2.5 0-5-1 0-2 0-2-2.5-4-5c-2.3-1.1-4.1-1.3-6.6-1.6q-1.2-0.1-2.5-0.2-0.9-0.1-1.9-0.2-0.5 2-1 4c-1-1-1-1-1.1-3.6q0.1-1.2 0.1-2.4z"/>
	<path class="s69" d="m999 937c10-0.8 18.3 0.8 26.5 6.9 1.9 1.6 3.7 3.3 5.5 5.1-1 0.5-1 0.5-2 1-2.6-1.3-2.6-1.3-5-3q0-1.5 0-3c-0.8-0.2-0.8-0.2-1.6-0.4-2.9-0.7-5.8-1.7-8.7-2.6-4.9-1.5-9.5-2.6-14.7-3q0-0.5 0-1z"/>
	<path class="s58" d="m1319 934c5-0.1 9.8 0.2 14.7 0.8 3.5 0.3 6.9 0.3 10.3 0.2q-0.5 1-1 2c-7.9 0-15.8 0-24 0q0-1.5 0-3z"/>
	<path class="s41" d="m780 481c2.5 1.1 4 2 5.9 4.1 2.4 2.2 3.9 2.5 7.1 2.9q0.4 1.7 0.8 3.4c0.8 3.6 0.8 3.6 3.2 4.9q1 0.3 2 0.7 1 1.5 2 3c-3.8-1.3-6.2-2.8-9-5.7q-1-1-2.1-2.1-1.1-1.1-2.2-2.3-1.1-1.1-2.3-2.2c-5.4-5.5-5.4-5.5-5.4-6.7z"/>
	<path class="s70" d="m870 508c4 1.6 6.8 4.4 9.9 7.3 3.9 3.7 7.9 7.3 12.1 10.7q-0.5 1.5-1 3c-3-1-3-1-4.2-3.1-3-4.8-7.5-8-11.9-11.6q-0.9-0.8-1.9-1.6-0.9-0.7-1.7-1.4c-1.3-1.3-1.3-1.3-1.3-3.3z"/>
	<path class="s56" d="m1102 1021q2.1 1.9 4 4 0 1 0 2 1 0 2 0 0-1 0-2 1 0 2 0c0.6 1.9 0.6 1.9 1 4q-1 1-2 2 1.5 1 3 2c0.2 3.6 0.2 3.6 0 7-4.4-4.9-10-12.2-10-19z"/>
	<path class="s71" d="m650 591q1 0.5 2 1c-1 1.5-1 1.5-2 3q-1 0-2 0-0.1 1.1-0.3 2.3c-0.8 3.2-2.2 4.5-4.7 6.7q-1.5-0.5-3-1c-2.2 1.4-2.2 1.4-4 3 1.6-4.2 4.8-6.8 8.1-9.8q0.9-0.7 1.7-1.5 2.1-1.8 4.2-3.7z"/>
	<path class="s72" d="m1146 1003q0.5 1 1 2c7.3-0.3 14.5-0.7 22-1q0.5 1.5 1 3c-8.3 0-16.5 0-25 0q0.5-2 1-4z"/>
	<path class="s73" d="m892 644q0.5 0 1 0c0 13.5 0 27.1 0 41q-0.5 0-1 0c-0.3-6.9-0.7-13.9-1-21q-1 0-2 0 0.5-3 1-6 1 0 2 0c0-4.6 0-9.2 0-14z"/>
	<path class="s74" d="m1184 982q0.5 1 1 2 2.5 0 5 0c0.1 4.8 0.1 4.8-1 7 0.7 2.6 1.5 5.1 2.4 7.6 0.6 2.4 0.6 2.4-0.4 5.4-7-17-7-17-7-22z"/>
	<path class="s75" d="m322 1026q1 0 2 0c3.1 4.1 3.1 4.1 2.9 7.2-0.9 1.8-0.9 1.8-3.9 3.8q-2-2-4-4 1 0 2 0-0.5-1.5-1-3c0.9-2.2 0.9-2.2 2-4z"/>
	<path class="s76" d="m471 1015c4.4 2.2 6.3 9.2 8 13.7q1 3.1 2 6.3c4.3 0.3 8.6 0.7 13 1q0 0.5 0 1c-4.6 0-9.2 0-14 0-3.8-7.2-7-14.1-9-22z"/>
	<path class="s77" d="m1139 1025c11.9 0 23.8 0 36 0q0 0.5 0 1c-15.8 0.5-15.8 0.5-32 1q0.5 2.5 1 5-0.5-1-1-2c-2-1.1-2-1.1-4-2q0-1.5 0-3z"/>
	<path class="s78" d="m1316 1015q0.5 0 1 0c0 7.9 0 15.8 0 24q-2-0.5-4-1 0-1 0-2 1 0 2 0 0-1 0-2.1 0-1.4-0.1-2.8 0-1.3 0-2.7c0.1-2.4 0.1-2.4 1.1-4.4q-1 0-2 0c0-2.3 0-4.6 0-7q1 0 2 0 0-1 0-2z"/>
	<path class="s79" d="m350 948q-0.5 2-1 4-1 0-2 0-0.3 1.4-0.7 2.9c-1.3 3.1-1.3 3.1-3.9 4.2q-1.2 0.5-2.4 0.9c-0.7 2-0.7 2-1 4q-1 0.5-2 1c0.5-4.1 1.8-6.4 4.4-9.6q0.9-1.2 1.8-2.3c4.4-5.1 4.4-5.1 6.8-5.1z"/>
	<path class="s80" d="m626 615q0 1.5 0 3c-1 0.5-1 0.5-2 1-0.5 2.9-0.5 2.9-0.6 6.4-0.2 2-0.2 2-0.3 4q-0.1 2.1-0.2 4.2-0.2 2.1-0.3 4.1-0.3 5.2-0.6 10.3-0.5 0-1 0-0.1-6.3-0.2-12.7 0-2.1 0-4.3-0.1-3.1-0.1-6.1 0-1.9 0-3.8c0.3-3.1 0.3-3.1 1.7-5 1.6-1.1 1.6-1.1 3.6-1.1z"/>
	<path class="s81" d="m645.6 532.9c1.7 0 1.7 0 3.4 0.1-1.5 3.6-3.6 5.7-6.5 8.3q-1.2 1-2.4 2.1c-2.1 1.6-2.1 1.6-4.1 1.6q0-1 0-2 1 0 2 0 0-1 0-2 1-0.5 2-1c-0.1-1.2-0.1-1.2-0.1-2.4 0.2-4.3 1.5-4.6 5.7-4.7z"/>
	<path class="s82" d="m981 1041q1 2 2 4 1-1.5 2-3 0 1 0 2 3-0.5 6-1-0.5 1.5-1 3-2 0-4 0 0 1 0 2 1.5 0.5 3 1c-5.1-0.4-8.8-0.8-13-4q0-1 0-2 1.5 0.5 3 1 1-1.5 2-3z"/>
	<path class="s83" d="m575 988c3.9 3.5 5.3 7.8 7.3 12.5 0.5 1.3 0.5 1.3 1.1 2.6q0.5 1.3 1.1 2.6 0.4 1.1 0.9 2.3c0.6 2 0.6 2-0.4 5-2.5-3-3.9-5.9-5.2-9.6q-0.5-1.4-1-2.8c-0.8-2.6-0.8-2.6-0.8-5.6q-1 0-2 0c-0.3-2.3-0.7-4.6-1-7z"/>
	<path class="s84" d="m758 956c14.1-0.3 14.1-0.3 18.6 2.8 4.8 5.5 5.5 9 5.4 16.2q-0.5 0-1 0-0.4-1.8-0.8-3.6c-1.1-4.6-2.8-8.8-6.9-11.5-3-1.2-5.8-1.3-9.1-1.5-1.7-0.1-1.7-0.1-3.5-0.3q-1.3 0-2.7-0.1 0-1 0-2z"/>
	<path class="s70" d="m1095 946c4.5 1.5 6.7 5 9 9 0.9 2.3 1.5 4.6 2 7q-1 0-2 0c-2-2-2-2-3-5q0.5-1 1-2-2 0-4 0-0.2-1.2-0.3-2.4c-0.5-2.9-0.5-2.9-3.7-4.6q0.5-1 1-2z"/>
	<path class="s42" d="m315 942c5 1.5 8.2 4.6 12 8-0.3 2.4-0.3 2.4-1 5q-1.5 1-3 2c0.3-2.3 0.7-4.6 1-7-2.6-0.3-5.3-0.7-8-1-0.3-2.3-0.7-4.6-1-7z"/>
	<path class="s85" d="m652 533q1.5 0.5 3 1-2.4 2.6-5 5-1 0-2 0 0 1 0 2 1.5 0.5 3 1-2 0.5-4 1c-1.3 0.3-1.3 0.3-2.6 0.7-1.2 0.1-1.2 0.1-2.4 0.3q-1-1-2-2c2.5-2.9 2.5-2.9 4.9-3.4 3.2-0.9 4.9-3.2 7.1-5.6z"/>
	<path class="s86" d="m1209 1038c0.3 4.3 0.7 8.6 1 13q-1.5 0-3 0-1-2.4-2-4.9-0.6-1.3-1.1-2.7c-0.9-2.4-0.9-2.4-0.9-4.4 4.9-1 4.9-1 6-1z"/>
	<path class="s42" d="m732 575q1 0.5 2 1c-3.2 3.9-6.4 7.5-10 11q-1.1 1.1-2.2 2.3c-1.8 1.7-1.8 1.7-3.8 1.7 0.6-3.4 1.7-5 4.2-7.4q0.9-0.9 1.9-1.8c2.6-2.4 5.2-4.6 7.9-6.8z"/>
	<path class="s87" d="m393 1048c-8.4 3.6-16.1 3.3-25 3q0-1 0-2 5.1-0.5 10.3-1.1c1.4-0.1 1.4-0.1 2.9-0.3q1.4-0.1 2.8-0.3 1.3-0.1 2.6-0.2c2.4-0.1 4.2 0.2 6.4 0.9z"/>
	<path class="s88" d="m888 1030c0.7 1.7 0.7 1.7 1 4-1.1 2.1-1.1 2.1-2.8 4.1q-0.8 1-1.7 2.1c-1.5 1.8-1.5 1.8-3.5 3.8q-1.5-0.5-3-1 0.5-0.9 0.9-1.8c1.2-2.3 1.2-2.3 2.1-5.2q2 0.5 4 1c0.2-1.5 0.2-1.5 0.4-2.9q0.3-1.5 0.6-3.1 1-0.5 2-1z"/>
	<path class="s89" d="m512 668q1 0 2 0 0 1 0 2c-1.6 1.4-1.6 1.4-3.8 2.9-2.4 1.6-4.1 2.9-5.8 5.2-1.4 1.9-1.4 1.9-4.4 2.9-1 1.5-1 1.5-2 3q-1 0-2 0 0-1.5 0-3c2.3-2 4.5-3.8 6.9-5.6q1.9-1.4 3.8-2.9 0.9-0.6 1.8-1.3c1.6-1.3 1.6-1.3 3.5-3.2z"/>
	<path class="s90" d="m827 523c2 0.5 2 0.5 4 1q0 2 0 4 1.4 0.5 2.9 0.9c3.1 1.1 3.1 1.1 5.1 2.1q0.5 2 1 4 1 1 2 2c-3 0-3 0-4.6-1.4q-0.9-0.9-1.7-1.8c-3.1-3.2-6.2-6-9.7-8.8q0.5-1 1-2z"/>
	<path class="s91" d="m719 524c-0.4 2.6-0.7 4.5-2.3 6.7-2.1 1.6-4.2 2.4-6.7 3.3q-1.5 1-3 2c0.8-2.4 0.8-2.4 2-5q1.5-0.5 3-1 0.2-1 0.4-1.9c0.6-2.1 0.6-2.1 2.5-3.4 2.1-0.7 2.1-0.7 4.1-0.7z"/>
	<path class="s92" d="m846 1021q1 0 2 0 0.5 1.5 1 3c3.5 1.2 6.5 1.3 10.2 1.6 1.9 0.1 1.9 0.1 3.8 0.2q1.5 0.1 3 0.2-0.5 1-1 2c-7.1 0.3-12.7 0.4-19-3q0-2 0-4z"/>
	<path class="s93" d="m1234 1008c9.9 0.3 19.8 0.7 30 1q0 0.5 0 1-6.2 0.3-12.3 0.6c-1.8 0-1.8 0-3.5 0.1-1.7 0.1-1.7 0.1-3.4 0.2q-1.6 0-3.2 0.1c-2.6 0-2.6 0-5.6-1q0 1 0 2-1 0-2 0 0-2 0-4z"/>
	<path class="s94" d="m852 487q1 0 2 0c0.4 1.2 0.4 1.2 0.9 2.4 0.8 2.7 0.8 2.7 3.1 3.6q0 1 0 2 0.9 0.4 1.7 0.8c2.5 1.3 4.4 2.9 6.5 4.8q1.1 1 2.2 1.9 0.8 0.8 1.6 1.5-1 1-2 2c-0.7-0.7-0.7-0.7-1.5-1.5-4.1-4.2-8.4-8.2-13-11.9-1.5-1.6-1.5-1.6-1.5-5.6z"/>
	<path class="s95" d="m731 939q1.5 0 3 0c0.2 11.5 0.2 11.5-1 17q-1-0.5-2-1c0-5.3 0-10.6 0-16z"/>
	<path class="s96" d="m895 588c4 1.3 6.3 3 9.2 6.1 2.6 2.8 2.6 2.8 5.8 4.9q-0.5 1.5-1 3-1.1-1.2-2.2-2.4c-2.8-2.6-4.1-3.3-7.8-3.6q0.5-1.5 1-3-1.5 0.5-3 1 0-1.5 0-3-1-0.5-2-1 0-1 0-2z"/>
	<path class="s53" d="m773.8 423.7c7.3 0.2 12 4.5 17.2 9.3q-1.5 0.5-3 1c-1.6-1.4-1.6-1.4-3.4-3.4-5-4.7-10-4.7-16.6-4.6 2-2 2-2 5.8-2.3z"/>
	<path class="s87" d="m320 1035q1.5 0.5 3 1c-1.4 3.4-3 5.1-5.9 7.3-1.1 0.8-1.1 0.8-2.1 1.6q-1 0.6-2 1.1-1.5-0.5-3-1c1.1-0.8 1.1-0.8 2.3-1.7 2.7-2.3 4-4.3 5.7-7.3q1-0.5 2-1z"/>
	<path class="s97" d="m843 1025q1 0.5 2 1c3.5 1.2 6.6 1.4 10.3 1.6 1.9 0.1 1.9 0.1 3.8 0.3q1.4 0 2.9 0.1 0 0.5 0 1c-2.3 0.3-4.6 0.7-7 1q0 0.5 0 1c-4.7-0.5-8.7-1-13-3q0.5-1.5 1-3z"/>
	<path class="s71" d="m363 1050c7.9 0.3 15.8 0.7 24 1-4.8 3.2-10.3 3.1-16 3-3-0.7-5.2-1.6-8-3q0-0.5 0-1z"/>
	<path class="s98" d="m615 1025c0.8 1.6 0.8 1.6 1 4-2 3.6-3.5 5.7-7 8q-3.5 0.1-7 0c2.7-2.7 5.4-3.1 9-4q-0.5-2.5-1-5 2 0.5 4 1 0.5-2 1-4z"/>
	<path class="s42" d="m872 939c7.6 1.4 12.5 5.6 17.1 11.8q0.4 1.1 0.9 2.2-0.5 1-1 2-0.5-0.8-1-1.6c-4.3-6.1-8.9-10-16-12.4q0-1 0-2z"/>
	<path class="s98" d="m630 602c3 0.5 3 0.5 6 1 0 2 0 2-1.5 3.5q-0.9 0.8-1.9 1.6-0.9 0.8-1.9 1.7c-1.7 1.2-1.7 1.2-3.7 1.2-0.3-3.1-0.2-4.6 1.5-7.3q0.7-0.8 1.5-1.7z"/>
	<path class="s71" d="m780 483c4.3 1.7 7.1 4.9 10.3 8.1 0.8 0.9 0.8 0.9 1.6 1.7q2.1 2.1 4.1 4.2-0.5 1-1 2-0.8-0.8-1.6-1.6c-5.1-5.4-5.1-5.4-11.4-9.4q-1 0-2 0 0-2.5 0-5z"/>
	<path class="s99" d="m743 448q1 0.5 2 1c-0.6 0.6-0.6 0.6-1.3 1.2q-0.8 0.8-1.7 1.6-0.8 0.8-1.7 1.6c-1.6 1.6-1.6 1.6-1.3 4.6q-1 0-2 0 0 1 0 2c-2.8 0.6-5.2 1-8 1 4.5-4.6 9-9 14-13z"/>
	<path class="s93" d="m955 939q0.5 0 1 0 0.1 1.8 0.2 3.6 0.1 2.4 0.2 4.7 0.1 1.2 0.2 2.4 0 1.1 0.1 2.3 0 1 0.1 2.1c0.2 2.1 0.2 2.1 1.2 4.9q1 0.5 2 1c-0.4 1.9-0.4 1.9-1 4q-1 0.5-2 1 0.5-2 1-4-2-0.5-4-1c0.3-6.9 0.7-13.9 1-21z"/>
	<path class="s100" d="m897 530c2.8 1.1 4.3 2.3 6.4 4.5 2.4 2.6 2.4 2.6 5.3 3.6 2.9 1.1 3.1 2.2 4.3 4.9q1.5 0.5 3 1 0 1 0 2c-3.1-0.6-4.8-1.4-7.2-3.6q-0.8-0.8-1.7-1.6-0.8-0.8-1.7-1.7-0.9-0.8-1.8-1.6c-2.6-2.4-4.6-4.5-6.6-7.5z"/>
	<path class="s101" d="m1161.6 1001.9c1.1 0 1.1 0 2.2 0.1q2.6 0 5.2 0 0 1 0 2c-3.1 1.5-6.3 1.1-9.6 1.1q-1.1 0-2.2-0.1-2.6 0-5.2 0 0-1 0-2c3.1-1.5 6.3-1.1 9.6-1.1z"/>
	<path class="s102" d="m1048 667c4.8 1.5 7.7 4.1 11.3 7.5 0.8 0.7 0.8 0.7 1.7 1.5 1.4 1.3 2.7 2.6 4 4q0 1 0 2c-2.8-1.3-5-2.7-7.2-4.8-0.9-0.8-0.9-0.8-1.8-1.6q-0.8-0.8-1.8-1.7-0.8-0.8-1.8-1.6-2.2-2.1-4.4-4.3 0-0.5 0-1z"/>
	<path class="s62" d="m794 500q1 1 2 2-1 0-2 0 0-1 0-2zm2 0c4.7 0.3 6.7 2.3 9.9 5.5 1.1 1.5 1.1 1.5 1.1 3.5q-2.5 0.5-5 1-0.6-1.6-1.3-3.3c-1.2-2.8-2.3-4.8-4.7-6.7z"/>
	<path class="s103" d="m726 461q1 0.5 2 1-2.1 2.2-4.3 4.4-1.2 1.3-2.4 2.5c-2.3 2.1-2.3 2.1-5.3 3.1q-0.5-2.5-1-5 1.2-0.4 2.4-0.9c2.7-0.9 2.7-0.9 4.6-3.1 2-1.2 2-1.2 4-2z"/>
	<path class="s104" d="m396 1009q1.5 0.5 3 1c-0.2 6.4-3.8 9.7-8 14 0-3 0-3 1.4-4.8 2.1-2.9 2.2-5.6 2.6-9.2q0.5-0.5 1-1z"/>
	<path class="s105" d="m977 986q0.5 0 1 0 0.1 0.9 0.2 1.8 0.3 3.9 0.7 7.9 0.1 1.3 0.2 2.8c0.4 4.5 1 8.3 2.9 12.5-0.4 2.3-0.4 2.3-1 4-3.2-7.2-4.1-13-4.1-20.8 0-1.2 0-1.2 0.1-2.4q0-2.9 0-5.8z"/>
	<path class="s106" d="m946 984c2.9 4 1.8 8.1 1.1 12.8-0.1 1.1-0.1 1.1-0.3 2.4q-0.4 2.9-0.8 5.8-0.5 0-1 0 0-5-0.1-9.9 0-1.4 0-2.9 0-1.3 0-2.7 0-1.3 0-2.6c0.1-1.9 0.1-1.9 1.1-2.9z"/>
	<path class="s68" d="m283 959q1 0.5 2 1-0.7 0.7-1.4 1.4c-4.7 5.1-7.8 10.3-10.6 16.6-1.4-4.4-0.7-7.8 1-12 1.8-1.2 1.8-1.2 4-2q2.6-2.4 5-5z"/>
	<path class="s16" d="m611 567q1 0.5 2 1c-4.5 4.6-9 9-14 13q-1-0.5-2-1 1.7-1.8 3.4-3.5 0.9-1 1.9-2c1.7-1.5 1.7-1.5 3.7-1.5q-1-2-2-4 1.2 0.1 2.4 0.1c2.8 0.2 2.8 0.2 4.6-2.1z"/>
	<path class="s107" d="m1089 1003c3.2 1.1 4 2 5.8 4.9 1.2 3.1 1.2 3.1 0.2 6.1q-1.5-2-3-4c-1 1.5-1 1.5-2 3-2.1-6.6-2.1-6.6-1-10z"/>
	<path class="s108" d="m1133 966q0.5 1 1 2 1 0 2 0c-1 3.6-2 7.3-3 11q-1.5 0-3 0c-0.2-3.7-0.2-4.8 2-8q0.6-2.5 1-5z"/>
	<path class="s109" d="m778 967q1 0 2 0c0.3 7.1 0.4 12.7-3 19q-1 0-2 0 0.5-1.6 0.9-3.3c1.3-5.2 1.7-10.4 2.1-15.7z"/>
	<path class="s110" d="m296 958c-1.4 2.8-3.1 3-6 4q-1.5 0.5-3 1-0.5 1-1 2-1.5 1.5-3 3-1-1.5-2-3c9.2-8 9.2-8 15-7z"/>
	<path class="s111" d="m1202 1040c2 1 2 1 3.1 3.3 0.9 2.7 0.9 2.7 0.9 6.7-5.6 0-11.2 0-17 0q0-0.5 0-1c5-0.3 9.9-0.7 15-1q-1-1.5-2-3c-0.1-2.7-0.1-2.7 0-5z"/>
	<path class="s97" d="m399 1041c0 3 0 3-1.6 5.3-2.4 1.7-2.4 1.7-6.2 1.5q-1.6-0.4-3.2-0.8 0.5-1 1-2 1.5 0 3 0 0.5-1 1-2 3-1.1 6-2z"/>
	<path class="s41" d="m336 1022q2.1 1.9 4 4 0 1 0 2 1 0 2 0 0.5 1.5 1 3 0.7 0.7 1.4 1.4c1.8 1.8 2.6 3.4 3.6 5.6-4-1.5-5.8-4-8.3-7.4-1-1.5-1-1.5-2.1-3-1.6-2.6-1.6-2.6-1.6-5.6z"/>
	<path class="s2" d="m387 1026q1 0.5 2 1c-4.6 3.5-9.4 4-15 4q-1.5-0.5-3-1 0-1 0-2c1.4-0.1 1.4-0.1 2.7-0.2 1.8-0.1 1.8-0.1 3.6-0.2 1.8-0.2 1.8-0.2 3.6-0.3 3.1-0.2 3.1-0.2 6.1-1.3z"/>
	<path class="s112" d="m1188 999c2 1 2 1 3.1 3.5 0.5 1.6 0.5 1.6 1 3.3q0.6 1.5 1.1 3.1c0.7 2.9 1 5.2 0.8 8.1-2.5-2.9-3.5-5.2-4-9q-2-0.5-4-1 0.5-0.9 1-1.7c1.3-2.5 1.3-2.5 1-6.3z"/>
	<path class="s20" d="m360 963q1 0 2 0-2.2 5.5-4.5 11.1-0.6 1.5-1.3 3.1c-1 2.3-2 4.6-3.2 6.8-0.3-11.6-0.3-11.6 2.9-15.2q1.1-0.9 2.1-1.8c1.2-2.1 1.2-2.1 2-4z"/>
	<path class="s113" d="m691 546q2.5 0.5 5 1c-1.6 4.3-4.5 6.3-8 9q1-3 2-6-1 0-2 0 0-1 0-2 1.5 0 3 0 0-1 0-2z"/>
	<path class="s114" d="m698 489q1 0.5 2 1-2.4 2.5-4.9 5c-1.3 1.4-1.3 1.4-2.7 2.8-2.4 2.2-2.4 2.2-4.4 2.2q-1 2-2 4-1-0.5-2-1c4.3-5.2 8.8-9.7 14-14z"/>
	<path class="s115" d="m331 1014q1 0 2 0 1 2.6 1.9 5.2c0.6 1.4 0.6 1.4 1.1 2.9 0.9 2.6 1.5 5.2 2 7.9-3.8-3.4-5.8-6-7-11-0.1-2.9-0.1-2.9 0-5z"/>
	<path class="s116" d="m637 938q0.2 1 0.4 1.9 0.3 1.1 0.6 2.1 1 0.5 2 1-2 0-4 0c-2.8 2.3-4.6 4.6-6 8q-0.5-1-1-2c0.9-2.3 0.9-2.3 2.3-5.1q0.6-1.3 1.3-2.7c1.4-2.2 1.4-2.2 4.4-3.2z"/>
	<path class="s117" d="m771 535c2.2-0.4 2.2-0.4 5 0 2 1.8 3.4 3.8 5 6q-0.9-0.5-1.8-0.9c-3-1.5-3-1.5-6.2-2.1-2.1 1.9-2.1 1.9-4 4q-1 0-2 0 0.5-2.5 1-5 1.5 0.5 3 1 0-1.5 0-3z"/>
	<path class="s118" d="m838 1046q1 0.2 1.9 0.4c4.1 0.8 8.1 1.6 12.2 2.1q1.4 0.2 2.9 0.5 0.5 1 1 2c-7.1 0.5-11.7-0.7-18-4q0-0.5 0-1z"/>
	<path class="s119" d="m345 1032c2 1 2 1 4 2q0 1 0 2 1.5 0.5 3 1 0.5 2.5 1 5-1.5 0-3 0c-2.8-2.9-3.9-6.1-5-10z"/>
	<path class="s120" d="m248 1009c4 4 5.1 10.6 6 16q-1 0-2 0-0.4-0.8-0.8-1.7-0.5-1.1-1.1-2.2-0.5-1-1-2.2c-1.1-2.1-1.1-2.1-3.1-3.9q1-3 2-6z"/>
	<path class="s121" d="m248 973q0.5 0 1 0c-0.3 9.2-0.7 18.5-1 28q-0.5 0-1 0-0.3-5.3-0.6-10.6-0.1-1.5-0.2-3.1c-0.3-5.2-0.4-9.4 1.8-14.3z"/>
	<path class="s122" d="m871 1027c-1.6 1.3-3.3 2.6-5 4q-0.5-0.5-1-1c-2.6 0.2-5.1 0.6-7.7 0.9q-1.1 0.1-2.3 0.1-1-1-2-2c1.2-0.2 1.2-0.2 2.5-0.4q1.6-0.3 3.3-0.5 1.6-0.3 3.3-0.6c6.8-1.2 6.8-1.2 8.9-0.5z"/>
	<path class="s123" d="m273 1004c2 1.6 2 1.6 4 4 0.3 3.8 0.3 3.8 0 7q1.5-0.5 3-1 0 3 0 6c-4-3.3-5.7-7.1-7-12q0-2 0-4z"/>
	<path class="s124" d="m1193 1007q0.5 1.5 1 3 1 0 2 0 0.5-1 1-2 1 1.5 2 3-0.5 1.5-1 3-1 0-2 0 0.5 2.5 1 5c-2-1.7-2.9-2.6-3.5-5.3q-0.1-1.2-0.2-2.4-0.1-1.2-0.2-2.4 0-1-0.1-1.9z"/>
	<path class="s125" d="m791 947c3.9 1.5 5.8 3.5 8 7 0.6 3 0.9 6 1 9-5-7.5-5-7.5-5-11q-1 0-2 0-1-2.5-2-5z"/>
	<path class="s126" d="m1025 948c2.3 0.3 4.6 0.7 7 1q0 1.5 0 3c-2.9 2.1-4.4 3-8 3 0.3-2.3 0.7-4.6 1-7z"/>
	<path class="s127" d="m517 938q2.8 0.1 5.6 0.4c1.5 0.2 1.5 0.2 3 0.3 1.2 0.2 1.2 0.2 2.4 0.3q0 0.5 0 1c-3.3 0-6.6 0-10 0q0.5 2.5 1 5-2 0.5-4 1c0.9-6.9 0.9-6.9 2-8z"/>
	<path class="s128" d="m715 591q1 0.5 2 1-1.2 1.7-2.4 3.4-0.6 1-1.3 2c-1.3 1.6-1.3 1.6-3.3 2.6q-0.5 1.5-1 3-1-1-2-2c0.2-2.6 0.8-3.8 2.6-5.7q1-0.8 2-1.5 0.9-0.8 1.9-1.6 0.7-0.6 1.5-1.2z"/>
	<path class="s129" d="m776 537q0 1 0 2c-1.5 1.2-1.5 1.2-3.4 2.4-2.7 1.8-3.7 2.8-5.6 5.6q-2.5 1.6-5 3c0-3 0-3 1.6-4.7q1.1-0.9 2.2-1.8c3-2.5 3-2.5 5.8-5.2 1.4-1.3 1.4-1.3 4.4-1.3z"/>
	<path class="s130" d="m814 455c11.5 8.3 11.5 8.3 16 13q0 1 0 2c-4.1-1.7-7.1-4.5-10.3-7.5q-0.8-0.7-1.6-1.5c-1.4-1.3-2.8-2.6-4.1-4q0-1 0-2z"/>
	<path class="s97" d="m364 1044c1.6 1.7 3.3 3.3 5 5-2.8 1.1-4.5 1.2-7.3 0.2q-3.4-1.5-6.7-3.2 0-0.5 0-1c2.6 0.3 5.3 0.7 8 1q0.5-1 1-2z"/>
	<path class="s131" d="m628 998c2.5 1 2.5 1 5 2q-1 0.4-1.9 0.8c-2.3 1-2.3 1-2.9 3.3q-0.1 0.9-0.2 1.9 1 0 2 0 0 1 0 2-2.5 0-5 0-0.5 1-1 2c0.5-4.6 1.8-8 4-12z"/>
	<path class="s132" d="m1083 977q1.5 0.5 3 1c0.7 2.8 0.7 2.8 1 6-1.7 2.4-3.5 3.4-6 5-1.2-3.5-0.8-4.3 0.4-7.7 0.5-1.2 0.5-1.2 0.9-2.4q0.3-1 0.7-1.9z"/>
	<path class="s133" d="m1144 939c1.2 3.4 0.8 5.4-0.4 8.8q-0.5 1.1-0.9 2.4-0.3 0.9-0.7 1.8c-2.5-1-2.5-1-5-2q1-1.5 2-3 1.5 0 3 0c0-2.3 0-4.6 0-7q1-0.5 2-1z"/>
	<path class="s134" d="m764 429q1 0.5 2 1-0.9 0.8-1.8 1.6c-4.2 3.7-8.3 7.4-12.2 11.4 0-3 0-3 1.9-5.2 1.2-1.2 1.2-1.2 2.4-2.4q1.2-1.1 2.4-2.3c2.3-2.1 2.3-2.1 5.3-4.1z"/>
	<path class="s19" d="m398 968c4.9 3.8 4.9 3.8 6 6 0.2 4.4 0.1 7.2-2 11q-0.2-0.8-0.4-1.7-1.7-7.7-3.6-15.3z"/>
	<path class="s135" d="m998 959c6.4-0.6 11.3 1.2 17 4q1 1 2 2c-5.5-0.8-5.5-0.8-7.9-2-2.3-1.1-4.4-1.6-6.8-2.1q-1.2-0.3-2.5-0.5-0.9-0.2-1.8-0.4 0-0.5 0-1z"/>
	<path class="s136" d="m262 950q1 0.5 2 1-0.5 0.8-1.1 1.6c-0.6 1.1-0.6 1.1-1.3 2.2q-0.7 1.1-1.4 2.2c-1.3 2.1-1.3 2.1-2.2 5q-1.5 0.5-3 1c0.3-5.4 3.7-8.9 7-13z"/>
	<path class="s85" d="m556 939c2.9 0 5.7 0.1 8.6 0.4q1.2 0.1 2.5 0.1 2.9 0.3 5.9 0.5-2 1.5-4 3-1-0.5-2-1-3.3-0.3-6.6-0.6-1.8-0.1-3.6-0.2c-1.4-0.1-1.4-0.1-2.8-0.2q1-1 2-2z"/>
	<path class="s137" d="m806 451c3.5 1.5 6 3.6 8.8 6.1 1.1 1.1 1.1 1.1 2.4 2.2q0.9 0.8 1.8 1.7-0.5 1-1 2-1.4-1-2.9-1.9c-2.9-2-2.9-2-5.1-3.1q-1.1-2-2-4-1-1.5-2-3z"/>
	<path class="s138" d="m1013 1049q0.5 1.5 1 3-1 0-2 0-0.5 1-1 2c-5.3-0.7-10.6-1.3-16-2q0-0.5 0-1c1.4-0.1 1.4-0.1 2.7-0.2 1.8-0.1 1.8-0.1 3.6-0.2 1.8-0.2 1.8-0.2 3.6-0.3 2.8-0.3 5.3-1.3 8.1-1.3z"/>
	<path class="s87" d="m802 1032c3.9 3.3 6.2 7.3 8 12q0 1.5 0 3-1 0-2 0-1.5-2.9-3-5.8-0.8-1.6-1.7-3.3c-1.3-2.9-1.3-2.9-1.3-5.9z"/>
	<path class="s38" d="m878 1016c4.8 0.9 4.8 0.9 7 2 3 5.3 3 5.3 3 9q-1.5-1.7-3-3.4-0.8-0.9-1.7-1.9c-1.3-1.7-1.3-1.7-1.3-3.7q-3 0.5-6 1 1-1.5 2-3z"/>
	<path class="s139" d="m506 1005c1.3 3.9 0.4 6-1.4 9.7q-0.5 1-1 2.1-0.5 1-1.1 2.1-1.2 2.5-2.5 5.1c-1.2-3.6-0.7-4.4 0.8-7.8q0.5-1.3 1.1-2.7c1.3-2.9 2.6-5.7 4.1-8.5z"/>
	<path class="s140" d="m629 990c0.9 2.5 1.1 3.6 0.2 6.1q-0.5 1.1-1.1 2.2-0.6 1-1.2 2.1-0.4 0.8-0.9 1.6c-2-3-2-3-1.8-6.1q0.4-1.4 0.8-2.9 1-0.5 2-1 0 1.5 0 3 1-2.5 2-5z"/>
	<path class="s141" d="m881 632c2.5 1.2 4.7 2.5 7 4q0 1 0 2 1.5-0.5 3-1c1 2 2 4 3 6-4.1-0.5-6-2.6-8.8-5.5q-1.1-1.2-2.4-2.5c-1.8-2-1.8-2-1.8-3z"/>
	<path class="s24" d="m693 611q1 0.5 2 1-1 0.9-1.9 1.8c-2.3 2.1-2.3 2.1-3.1 5.2q-2.5 1.5-5 3-0.5 1-1 2-1-0.5-2-1c2.5-5.2 6.6-8.4 11-12z"/>
	<path class="s47" d="m772 591q2 2 4 4-0.5 1.5-1 3-2-1-4-2c-1.6 1.3-3.3 2.6-5 4q-1-0.5-2-1c2.6-2.6 5.3-5.3 8-8z"/>
	<path class="s85" d="m762 593c2 0.3 2 0.3 4 1q0.5 1.5 1 3-2 1.5-4 3-1.5-1-3-2c0.9-3.9 0.9-3.9 2-5z"/>
	<path class="s40" d="m918 549c3.9 1.6 6.7 4.3 9.8 7.1q0.7 0.7 1.5 1.4 1.8 1.8 3.7 3.5c-4.1 0-5.1-1.6-8.1-4.3q-1.3-1.2-2.6-2.4c-2.3-2.3-2.3-2.3-4.3-5.3z"/>
	<path class="s71" d="m800 1024q0.4 1 0.8 1.9c1 2.3 1 2.3 3.3 2.9q0.9 0.1 1.9 0.2c0.3 2.6 0.7 5.3 1 8-3.3-3-5.2-5.9-7-10q0-1.5 0-3z"/>
	<path class="s142" d="m1151 1007q0.5 1.5 1 3c-3.3 0-6.6 0-10 0q0-1.5 0-3c3.1-1.5 5.7-0.5 9 0z"/>
	<path class="s92" d="m491 993c1.3 3.8 0.5 5-0.9 8.7q-0.6 1.5-1.2 3-0.4 1.1-0.9 2.3-1 0-2 0c0.6-3.6 1.6-6.7 3-10q-1-0.5-2-1 2-0.5 4-1 0-1 0-2z"/>
	<path class="s143" d="m1180 976q1 0 2 0c1.6 4.2 2.2 7.5 2 12q-0.5-1-1-2-2 0-4 0 0-1 0-2 1 0 2 0c-0.3-2.6-0.7-5.3-1-8z"/>
	<path class="s78" d="m1140 955q1.5 0.5 3 1 0 3 0 6c-2 1-2 1-4 2-1-2.8-1-3.9-0.1-6.8q0.6-1.1 1.1-2.2z"/>
	<path class="s144" d="m872.7 935.4q1.2 0.1 2.4 0.3c1 0.2 1 0.2 1.9 0.3q0.5 1.5 1 3c-3.4 1.2-5.4 0.8-8.8-0.4q-1.1-0.5-2.4-0.9-0.9-0.3-1.8-0.7c3.4-2.2 3.9-2.2 7.7-1.6z"/>
	<path class="s145" d="m809 569c3.2 1.4 4 2 6 5q-1 1-2 2c-3.1-0.4-3.1-0.4-6-1q1-3 2-6z"/>
	<path class="s146" d="m776 538q1.5 1.5 3 3-0.5 1-1 2 1 0.5 2 1-4.5 0-9 0c1.4-3.2 2-4 5-6z"/>
	<path class="s147" d="m828 471c4.3 1.4 6.7 3.4 9.8 6.6 1.2 1.3 1.2 1.3 2.4 2.5q0.9 0.9 1.8 1.9c-1 0.5-1 0.5-2 1q-2-1.7-4-3.4c-1.1-0.9-1.1-0.9-2.3-1.9q-0.8-0.8-1.7-1.7 0-1 0-2-2-1-4-2 0-0.5 0-1z"/>
	<path class="s97" d="m1020 1039q0.5 2 1 4c-1 0.5-1 0.5-2 1q-0.5 1.5-1 3-2-0.5-4-1c0.6-2.9 0.9-3.9 3-6q1 0 2 0 0.5-0.5 1-1z"/>
	<path class="s148" d="m408 1033q1.5 0 3 0c-1.5 3.7-3.6 5.7-6.6 8.3q-1.2 1-2.5 2.1c-0.9 0.8-0.9 0.8-1.9 1.6q-1.5-0.5-3-1 0.9-0.7 1.9-1.4 1.2-0.9 2.5-1.9c1.2-0.9 1.2-0.9 2.4-1.8 2.2-1.9 3.1-3.3 4.2-5.9z"/>
	<path class="s67" d="m497 975q1.5 0 3 0c-0.6 3.9-1.8 6.9-3.6 10.3q-0.6 1.3-1.3 2.7-0.6 1-1.1 2c-1-3-1-3 0.4-5.8q0.8-1.6 1.6-3.2c0.7-3.2 0.7-3.2 1-6z"/>
	<path class="s149" d="m469 969c3.2 2.1 3.8 3 5.3 6.4 0.5 1.1 0.5 1.1 1 2.3 0.8 2.6 0.6 3.8-0.3 6.3q-0.5-2-1-4-1 0-2 0c-1-3.6-2-7.3-3-11z"/>
	<path class="s150" d="m1169 943c3.7 3.7 4.9 6.7 5.1 11.9q0 1-0.1 2.1c-2-3-2-3-2-5q-1.5 0-3 0c0-3 0-5.9 0-9z"/>
	<path class="s46" d="m977 1046c4.7 1.5 9.4 3.1 14 5q0 0.5 0 1c-5.7 0.6-9.2-1.3-14-4q0-1 0-2z"/>
	<path class="s37" d="m327 1033c0 3 0 3-2 6q-1 0-2 0 1 2 2 4c-3-0.5-3-0.5-6-1q1.4-1.7 2.9-3.4 0.8-0.9 1.6-1.9 1.7-1.9 3.5-3.7z"/>
	<path class="s92" d="m340 1033c3.7 1.5 6 3.8 8.8 6.6q1.1 1.2 2.4 2.5c0.9 0.9 0.9 0.9 1.8 1.9-3.7 0-4.4-0.8-7.1-3.2q-1-1-2.1-1.9c-1.8-1.9-2.8-3.5-3.8-5.9z"/>
	<path class="s151" d="m733 1022q0.5 0 1 0c-0.3 4-0.7 7.9-1 12-1.5-2.3-2.8-4.5-4-7q2-2.5 4-5z"/>
	<path class="s152" d="m1089 940c6.8 1.6 6.8 1.6 9 5q1.5 0.5 3 1c0.7 2.1 0.7 2.1 1 4-5.2-2.3-9.1-6-13-10z"/>
	<path class="s62" d="m455 937c2.9 0.6 3.9 0.9 6 3q1 0.5 2 1c0 2.6 0 5.3 0 8-2.7-1.3-2.9-2.7-4-5.4-1.1-2.8-1.8-4.4-4-6.6z"/>
	<path class="s153" d="m369 938q1 2.5 2 5-2 0.5-4 1 0-1 0-2-2 0-4 0-0.5-1.5-1-3c4.8-1 4.8-1 7-1z"/>
	<path class="s154" d="m378 938c4.5-0.1 8.6-0.1 13 1q-2 0.5-4 1 0 1 0 2 1.5 0 3 0-0.5 1-1 2c-3.9-1.8-3.9-1.8-5-4-2.3 0.3-4.6 0.7-7 1q0.5-1.5 1-3z"/>
	<path class="s155" d="m309 935c3.4 0.8 3.4 0.8 7 2q0.5 1.5 1 3 1 1 2 2c-3.6-0.6-6.7-1.6-10-3q0-2 0-4z"/>
	<path class="s56" d="m571 880c4.6 0 9.2 0 14 0-3.2 2.1-4.5 2.3-8.2 2.6-1.3 0.1-1.3 0.1-2.7 0.3-1 0-1 0-2.1 0.1q-0.5-1.5-1-3z"/>
	<path class="s156" d="m759.8 604.8q1.1 0.1 2.2 0.2-0.5 1.5-1 3-0.9 0.2-1.8 0.4c-2.9 0.8-4.1 2.5-6.2 4.6q-1 0-2 0c1.8-4.3 3.9-7.8 8.8-8.2z"/>
	<path class="s157" d="m830 588c3.9 1.3 6.3 4 9 7q0 1 0 2c-2 0-2 0-4.1-1.9-1.9-2.1-1.9-2.1-1.9-4.1q-3 0.5-6 1 0.5-1.5 1-3 1-0.5 2-1z"/>
	<path class="s40" d="m949 577c3.2 1.4 5.5 3.2 8.1 5.4q1 0.9 2.1 1.8c1.8 1.8 1.8 1.8 3.8 4.8-3.7-1.6-6.3-3.9-9.3-6.6q-1.3-1.2-2.7-2.4-1-1-2-2 0-0.5 0-1z"/>
	<path class="s158" d="m740.6 568.9q1.2 0 2.4 0.1-0.5 1.5-1 3-1 0-2 0-0.5 2-1 4-1.5-1-3-2c0-3.9 0.7-4.9 4.6-5.1z"/>
	<path class="s159" d="m880 1047q0 1 0 2c-2 1-2 1-4 2q0-1 0-2-1.6 0.8-3.3 1.6c-3.7 1.4-3.7 1.4-6.7 0.4 4.8-2.7 8.3-4.6 14-4z"/>
	<path class="s160" d="m1213 1019q0.5 0 1 0 0.3 3 0.7 6c0.3 2.2 0.3 2.2 1.3 5-0.3 2.3-0.3 2.3-0.9 4.7q-0.3 1.2-0.6 2.4-0.3 1-0.5 1.9-0.5 0-1 0c0-6.6 0-13.2 0-20z"/>
	<path class="s58" d="m504 1013q1.5 0 3 0c-0.3 3-0.7 5.9-1 9q-0.5-1-1-2-1 0-2 0-0.5 1-1 2c0.5-3.1 1-6 2-9z"/>
	<path class="s161" d="m1262 1002q0.5 2 1 4c-2.9 1.4-5.4 1.1-8.6 1.1q-1.8-0.1-3.6-0.1-1.4 0-2.8 0 0-0.5 0-1 0.9-0.1 1.9-0.1 1.2-0.2 2.5-0.3 1.2-0.1 2.4-0.2c2.4-0.2 2.4-0.2 4.2-2.4q1.5 0.5 3 1 0-1 0-2z"/>
	<path class="s145" d="m491 996q2.5 0.5 5 1 0 1 0 2-1 0-2 0 0 1 0 2-1.5 0-3 0-0.2 1-0.4 1.9-0.3 1.1-0.6 2.1c-1 0.5-1 0.5-2 1 0.8-3.4 1.9-6.7 3-10z"/>
	<path class="s37" d="m333 967c1.3 3.5 0.7 5.7-0.4 9.3q-0.5 1.3-0.9 2.7-0.3 1-0.7 2-0.5 0-1 0 0.2-3.2 0.4-6.4c0.1-1.8 0.1-1.8 0.2-3.7q0.2-1.4 0.4-2.9 1-0.5 2-1z"/>
	<path class="s162" d="m418 958c5.4 4.2 6.1 8.4 7 15-2.5-2.3-3.8-4.4-5.2-7.5q-0.5-1.2-1-2.3c-0.8-2.2-0.8-2.2-0.8-5.2z"/>
	<path class="s163" d="m368 960c-1.6 1.6-3.3 3.3-5 5q-0.5-1-1-2-2 0.5-4 1c1-3 1-3 2.8-4.3 2.7-0.9 4.4-0.5 7.2 0.3z"/>
	<path class="s85" d="m1276 956q0 1 0 2c-6.9-0.5-6.9-0.5-14-1q0-0.5 0-1c4.5-1.1 9.7-2.1 14 0z"/>
	<path class="s164" d="m339 953q1 0 2 0 0.5 1.5 1 3c-1.9 3.2-1.9 3.2-4 6-2-2-2-2-2.1-4.6q0-1.2 0.1-2.4 1 0 2 0 0.5-1 1-2z"/>
	<path class="s122" d="m832 944q1.5 0.5 3 1-0.7 0.6-1.4 1.1c-3.7 3.2-7.2 6.4-10.6 9.9 1.5-5.3 5.1-8.4 9-12z"/>
	<path class="s101" d="m1035 940q1 0.5 2 1-0.5 2.5-1 5-1.5 0-3 0-0.5 1-1 2-1.5 0-3 0 0.5-1.5 1-3 1 0 2 0 0.5-1.5 1-3 1 0.5 2 1 0-1.5 0-3z"/>
	<path class="s165" d="m475 876q1 0 2 0 0 1 0 2c3 0 5.9 0 9 0q0.5 1 1 2c-4 0-7.9 0-12 0q0-2 0-4z"/>
	<path class="s166" d="m852 608c4.3 1.7 6.9 4.7 10 8q-0.5 1-1 2-0.7-0.6-1.4-1.3-1-0.8-1.9-1.7-0.9-0.8-1.9-1.7c-1.8-1.6-1.8-1.6-4.8-1.3q0.5-2 1-4z"/>
	<path class="s167" d="m711 592c0 3 0 3-2 5.3q-1.2 1.2-2.5 2.4-1.2 1.2-2.5 2.4c-1 1-1 1-2 1.9q-1.5-0.5-3-1c4-3.6 7.9-7.3 12-11z"/>
	<path class="s75" d="m585 593q1.2 0.3 2.4 0.6c2.6 0.7 2.6 0.7 4.6-0.6q-0.5 2-1 4-2 0-4 0-0.5 1-1 2-1.5-1.5-3-3 1-1.5 2-3z"/>
	<path class="s11" d="m939 567c1.5 1 1.5 1 3 2q1-1 2-2 0.5 2.5 1 5 1.5 0.5 3 1-0.5 2-1 4-2-1.9-4-3.9c-1.1-1.1-1.1-1.1-2.3-2.2-1.7-1.9-1.7-1.9-1.7-3.9z"/>
	<path class="s168" d="m750 495q-1 2-2 4-1 0-2 0-0.5 2.5-1 5-1.5 0-3 0-0.5-1-1-2 1 0 2 0 0.4-0.9 0.8-1.8c2.8-5.2 2.8-5.2 6.2-5.2z"/>
	<path class="s42" d="m715 473q1.5 0.5 3 1 0 1 0 2c-1.6 1.3-1.6 1.3-3.8 2.6q-1.1 0.7-2.2 1.4c-2 1-2 1-5 1 2.6-2.6 5.3-5.3 8-8z"/>
	<path class="s169" d="m1086 1039q1 0 2 0 1.5 2 3 4 1 0 2 0c-0.4 2.4-0.4 2.4-1 5-1 0.5-1 0.5-2 1q-1-1.9-2-3.9-0.6-1-1.1-2.2c-0.9-1.9-0.9-1.9-0.9-3.9z"/>
	<path class="s170" d="m1032 1035q1 0.5 2 1-0.7 0.6-1.4 1.3c-1.7 1.6-1.7 1.6-2.6 3.8-1 1.9-1 1.9-4 2.9q-0.5-2-1-4 1.4-1 2.9-1.9c2.9-1.8 2.9-1.8 4.1-3.1z"/>
	<path class="s135" d="m792 1009q0.6 0.9 1.3 1.8c1.6 2.2 1.6 2.2 3.3 3.5 2.1 2.6 2.6 5.5 3.4 8.7-1 0.5-1 0.5-2 1q-1.5-2.9-3-5.8-0.8-1.6-1.7-3.3c-1.3-2.9-1.3-2.9-1.3-5.9z"/>
	<path class="s171" d="m622 1012q1 0 2 0c-0.7 3-1.6 5.9-2.6 8.8-0.4 1.1-0.4 1.1-0.8 2.4q-0.3 0.9-0.6 1.8-1 0-2 0c0.6-4.8 2-8.6 4-13z"/>
	<path class="s37" d="m466 1008q1 0 2 0 0.8 1.9 1.6 3.8 0.4 1 0.8 2.1c0.7 2.4 0.4 3.7-0.4 6.1-3-5.8-3-5.8-3-8q-1.5-0.5-3-1 1-1.5 2-3z"/>
	<path class="s172" d="m1132 987q1 1 2 2c-1 2.6-2 5.3-3 8q-1 0-2 0c-0.3-2.6-0.7-5.3-1-8q0.5 1 1 2 1 0 2 0 0.5-2 1-4z"/>
	<path class="s173" d="m1081 981q0.5 1.5 1 3c-1.4 2.8-1.4 2.8-4 5-2.9 0.1-5.1-0.4-8-1q0-0.5 0-1 0.9-0.1 1.9-0.3c1.2-0.2 1.2-0.2 2.5-0.5q1.2-0.2 2.4-0.4c2.4-0.6 2.4-0.6 3.5-2.9q0.3-0.9 0.7-1.9z"/>
	<path class="s174" d="m811 982q2.5 1.5 5 3c-0.5 2.2-1 4-2 6q-1.5 0-3 0c0-3 0-5.9 0-9z"/>
	<path class="s175" d="m1079 959q3 0.4 6 1 0.5 3 1 6c-3.9-1.3-5.8-2.5-8-6q0.5-0.5 1-1z"/>
	<path class="s176" d="m369 959c4.3 0.3 8.6 0.7 13 1q-0.5 1-1 2c-7.4 1.3-7.4 1.3-10 0q0-1 0-2-1-0.5-2-1z"/>
	<path class="s177" d="m517 664c3 1 3 1 4 3 0.1 2.7 0 5.3 0 8q-1-2-2-4-1 0-2 0c0-2.3 0-4.6 0-7z"/>
	<path class="s178" d="m841 539c3.2 1.4 5 2.9 7.3 5.6q0.7 1 1.5 1.9c0.6 0.8 0.6 0.8 1.2 1.5-2.2-1.1-4.1-2.1-6.1-3.6-1.9-1.7-1.9-1.7-4.9-1.4q0.5-2 1-4z"/>
	<path class="s123" d="m704 481q1 0.5 2 1-2.2 2.3-4.4 4.5-1.3 1.2-2.5 2.5c-2.1 2-2.1 2-3.1 2q0-3 0-6 1.5 0.5 3 1c1.6-1.6 3.3-3.3 5-5z"/>
	<path class="s179" d="m1009 1043c2.5 0.5 2.5 0.5 5 1q0 1 0 2 1 0 2 0 0 1 0 2c-1.8 0.6-1.8 0.6-4 1q-1.5-1-3-2 0-2 0-4z"/>
	<path class="s180" d="m268 1034q1 1.5 2 3-0.5 1.5-1 3-1.5 0.5-3 1c-1.5-1.4-1.5-1.4-3-3q0-1 0-2 2 0.5 4 1 0.5-1.5 1-3z"/>
	<path class="s181" d="m1013 1023c-1 3-1 3-3.1 4.2-3.4 0.9-6.4 0.9-9.9 0.8q0.5-1 1-2 3.5-0.5 7-1c3-2 3-2 5-2z"/>
	<path class="s53" d="m814 1020q1 0 2 0c3.1 6.6 3.1 6.6 2 10q-0.4-1.2-0.8-2.4-0.6-1.3-1.2-2.6-1.5-0.5-3-1 0.5-2 1-4zm-3 4c2 1 2 1 2 1z"/>
	<path class="s182" d="m268 983q1 0 2 0c-0.3 4.3-0.7 8.6-1 13-1.7-3.3-2.6-5.4-3-9 0.9-2.3 0.9-2.3 2-4z"/>
	<path class="s183" d="m802 979c1.2 3.6 0.7 4.2-0.8 7.6-0.5 1.1-0.5 1.1-1.1 2.3-1.1 2.1-1.1 2.1-3.1 4.1 0.5-5.3 2.5-9.4 5-14z"/>
	<path class="s184" d="m571 978q1 0 2 0c1 3.3 2 6.6 3 10q-2 0-4 0c-0.3-3.3-0.7-6.6-1-10z"/>
	<path class="s101" d="m274 973q0.5 1 1 2 1 0.5 2 1c-1 1.5-1 1.5-2 3-0.2 2.6-0.2 2.6 0 5-1 0.5-1 0.5-2 1-1.1-4.7-0.8-7.5 1-12z"/>
	<path class="s185" d="m1031 951c1 3 1 3 0.1 5.4q-0.7 1.4-1.4 2.7c-0.7 1.4-0.7 1.4-1.4 2.7-1.3 2.2-1.3 2.2-3.3 3.2q0.4-2.2 0.9-4.4 0.2-1.3 0.5-2.5 0.3-1.1 0.6-2.1 1-0.5 2-1c1.1-2 1.1-2 2-4z"/>
	<path class="s186" d="m321 950q2 0 4 0-0.5 2.5-1 5-1 0-2 0-0.5 2-1 4c-1.2-3.5-0.7-5.5 0-9z"/>
	<path class="s23" d="m1020 941c5.2 2.2 7.7 4.6 11 9-4.8-1.9-4.8-1.9-7-3q0-1.5 0-3-2-0.5-4-1 0-1 0-2z"/>
	<path class="s187" d="m1234 940c5.9 0 11.9 0 18 0-4 3-4 3-7.9 2.8q-2-0.4-4.1-0.8-1.7-0.3-3.5-0.6-1.2-0.2-2.5-0.4 0-0.5 0-1z"/>
	<path class="s188" d="m1075 687c3.7 1.2 5.3 3.2 8 6 1.1 1.1 1.1 1.1 2.3 2.3q0.8 0.8 1.7 1.7c-3.6-0.6-5.5-2-8.3-4.4q-1-1-2.1-1.9c-1.6-1.7-1.6-1.7-1.6-3.7z"/>
	<path class="s189" d="m673 629c3.9 1.8 3.9 1.8 5 4q-2 0.5-4 1-0.5 2.5-1 5-0.5 0-1 0 0-2.2-0.1-4.4 0-1.3 0-2.5c0.1-2.1 0.1-2.1 1.1-3.1z"/>
	<path class="s190" d="m842 592c1.9 0.3 1.9 0.3 4 1 1 3.1 0.9 4 0 7-3.2-1.4-4-2-6-5q1.5 0.5 3 1 0.5-1 1-2-1 0-2 0 0-1 0-2z"/>
	<path class="s163" d="m951 582q0.9 0.7 1.8 1.5c2.2 1.8 2.2 1.8 5.2 1.5 0.7 2.5 1 4.4 1 7-6.6-5-6.6-5-8-10z"/>
	<path class="s191" d="m879 514c5.7 1.5 5.7 1.5 7.1 3.9q0.5 1 0.9 2.1 1.9 2.1 4 4c-5.3-1.4-8.5-5-12-9q0-0.5 0-1z"/>
	<path class="s192" d="m737 508c0 3 0 3-1.5 4.8q-1 0.9-2 1.9-1 0.9-2 1.9-0.7 0.7-1.5 1.4c-0.6-1.9-0.6-1.9-1-4 2.2-2.2 4.4-3.5 7-5q0.5-0.5 1-1z"/>
	<path class="s193" d="m773.3 481.3c0.8 0.3 0.8 0.3 1.7 0.7q-1 0.4-1.9 0.8c-2.4 1.1-2.4 1.1-3.1 4.2q-2-1-4-2c4.4-4.1 4.4-4.1 7.3-3.8z"/>
	<path class="s194" d="m824 1032c2.9 2.8 5.5 5.8 8 9q1 1 2 2c-3.2-0.6-4.9-1.5-7.3-3.8q-0.7-0.8-1.5-1.5c-1.2-1.7-1.2-1.7-1.2-5.7z"/>
	<path class="s195" d="m1139 1025c3 0 5.9 0 9 0q0 0.5 0 1-2.5 0.5-5 1 0.5 2.5 1 5-0.5-1-1-2c-2-1.1-2-1.1-4-2q0-1.5 0-3z"/>
	<path class="s196" d="m774 1027c3 2.6 4.5 5.4 6 9-0.4 2.2-0.4 2.2-1 4q-1.3-2.1-2.5-4.3-0.7-1.1-1.4-2.3c-1.1-2.4-1.1-2.4-1.1-6.4z"/>
	<path class="s41" d="m1073 1015c2 0 2 0 3.5 1 2.3 3.1 2.7 6.3 3.5 10q-1 0-2 0-1.3-2.5-2.5-4.9-0.7-1.4-1.4-2.8c-1.1-2.3-1.1-2.3-1.1-3.3z"/>
	<path class="s197" d="m1122 1011q0.5 0 1 0c-0.5 4.3-1.2 8-3 12q-0.5 0-1 0 0.2-2.2 0.4-4.3 0.1-1.2 0.2-2.4c0.4-2.3 0.4-2.3 2.4-5.3z"/>
	<path class="s198" d="m1146 1003q0.5 1 1 2c4.3 0 8.6 0 13 0q0 0.5 0 1c-5 0.3-9.9 0.7-15 1q0.5-2 1-4z"/>
	<path class="s199" d="m1033 951q1 0 2 0 0.5 2 1 4-1 0.4-1.9 0.8c-2.4 1.1-2.4 1.1-3.1 4.2-0.3-5.6-0.3-5.6 2-9z"/>
	<path class="s44" d="m1039 938c1 0.5 1 0.5 2 1q3.5 0.1 7 0 0 0.5 0 1-3 0-6 0c-0.7 3.3-1.3 6.6-2 10q-0.5 0-1 0c0-4 0-7.9 0-12z"/>
	<path class="s200" d="m599 582c-1.4 3.2-2.9 5-5.6 7.3-1 0.7-1 0.7-1.9 1.5q-0.8 0.6-1.5 1.2-1-0.5-2-1 2.2-2.3 4.4-4.5c1.2-1.3 1.2-1.3 2.4-2.5 2.2-2 2.2-2 4.2-2z"/>
	<path class="s201" d="m832 531c3.4 1.4 5.5 3.3 8 6q-0.5 1-1 2c-2.2-0.5-4-1-6-2q0-1.5 0-3-0.5-1.5-1-3z"/>
	<path class="s202" d="m779 476q0.5 1 1 2 1.5 0.5 3 1-1.5 1.5-3 3c-2.3-1-4.6-2-7-3q3-1.5 6-3z"/>
	<path class="s92" d="m750 439c0 3 0 3-1.5 4.8q-1 0.9-1.9 1.9-1 0.9-2 1.9c-1.6 1.4-1.6 1.4-2.6 1.4q0-3 0-6 1.5 0.5 3 1c1.6-1.6 3.3-3.3 5-5z"/>
	<path class="s203" d="m1031 1028q1.5 1 3 2c-0.3 3.7-0.8 4.8-3.6 7.3q-1.2 0.8-2.4 1.7 0.5-1.1 0.9-2.3c1.3-3.1 2.1-5.4 2.1-8.7z"/>
	<path class="s97" d="m335 1009c0.9 3 1 3.9 0 7q1 0.5 2 1 0 1 0 2-1 0-2 0-0.5 1-1 2c-0.7-2.6-1.3-5.3-2-8q1 0 2 0 0.5-2 1-4z"/>
	<path class="s204" d="m474 968q1 0 2 0c0 3.6 0 7.3 0 11-3-3-3-3-3.1-5q0.6-3 1.1-6z"/>
	<path class="s205" d="m973 603q3 1.5 6 3 0 1 0 2 1.5 0.5 3 1-1.5 0.5-3 1c-1.8-1-1.8-1-3.7-2.4q-0.9-0.7-1.9-1.5-0.7-0.5-1.4-1.1 0.5-1 1-2z"/>
	<path class="s206" d="m907 541c3.2 1.2 4 2 6 5q-1 1-2 2-1-2-2-4-2 0-4 0 0-1 0-2 1-0.5 2-1z"/>
	<path class="s24" d="m780 481c3.4 1.5 5.4 3.4 8 6 2.1 1.2 2.1 1.2 4 2q-1.5 1-3 2-2.3-2.2-4.5-4.4-1.2-1.3-2.5-2.5c-2-2.1-2-2.1-2-3.1z"/>
	<path class="s134" d="m1133 1040c1.3 3.9 0.2 6.1-1 10q-1-0.5-2-1 0-1.5 0-3-1 0-2 0 0-1 0-2 2 0 4 0 0.5-2 1-4z"/>
	<path class="s207" d="m983 1016q1 1.1 2.1 2.3c2.9 2.7 5.6 4.6 8.9 6.7-1.8 0.7-1.8 0.7-4 1-1.9-1.3-1.9-1.3-3.8-3.3q-0.9-0.9-1.8-1.8c-1.4-1.9-1.4-1.9-1.4-4.9z"/>
	<path class="s208" d="m922 1008q1.5 0 3 0-0.5 2-1 4-0.5 0-1 0c-0.3 3.3-0.7 6.6-1 10q-0.5 0-1 0 0-2.9-0.1-5.9 0-1.6 0-3.3c0.1-2.8 0.1-2.8 1.1-4.8z"/>
	<path class="s209" d="m435 1005q1 0 2 0 0 1 0 2 1 0.5 2 1c-1 2-2 4-3 6q-0.5 0-1 0c0-3 0-5.9 0-9z"/>
	<path class="s200" d="m424 1004c1.2 3.4 0.8 5.4-0.4 8.8-0.5 1.1-0.5 1.1-0.9 2.4-0.4 0.9-0.4 0.9-0.7 1.8-1.2-3.5-1.1-6.4-1-10q1.5 0 3 0 0-1.5 0-3z"/>
	<path class="s113" d="m249 1003q1.5 0 3 0c-1 3-1 3-2 5q1 0 2 0 0 2.5 0 5-1 0-2 0c-1.6-3.2-1.1-6.4-1-10z"/>
	<path class="s44" d="m1167 993q1.5 0.5 3 1c0 3 0 5.9 0 9q-1-0.5-2-1c-0.4-2.1-0.4-2.1-0.6-4.6q-0.1-1.2-0.3-2.5 0-0.9-0.1-1.9z"/>
	<path class="s210" d="m455 981c3.1 3.4 3.6 6.4 4 11-2-1-2-1-4-3-0.4-2.8-0.2-5.2 0-8z"/>
	<path class="s27" d="m924 977q1 0 2 0-0.5 2.5-1 5-3 0.5-6 1 2.4-3.1 5-6z"/>
	<path class="s211" d="m1165 975q1 0.5 2 1c1.3 4.5 1.3 4.5 0 7q-1.5 0-3 0-0.1-3.5 0-7 0.5-0.5 1-1z"/>
	<path class="s212" d="m393 968c2.9 0.8 2.9 0.8 6 2 0.9 2.1 0.9 2.1 1 4-2.4-0.2-2.4-0.2-5-1-1.3-2.6-1.3-2.6-2-5z"/>
	<path class="s213" d="m852 959q2.2 0.2 4.3 0.4c1.2 0.1 1.2 0.1 2.4 0.2 2.3 0.4 2.3 0.4 5.3 2.4-5.8 1.1-5.8 1.1-8 0q0-1 0-2-2-0.5-4-1z"/>
	<path class="s214" d="m1138 956c1.1 3.3 0.9 5.1-0.4 8.3q-0.5 1-0.9 2.1-0.3 0.8-0.7 1.6-0.5 0-1 0 0.2-2.2 0.4-4.3 0.1-1.2 0.2-2.4c0.4-2.3 0.4-2.3 2.4-5.3z"/>
	<path class="s215" d="m1174 955c2.6 3.9 1.8 5.6 1 10-2.6-2.6-2.5-4.5-3-8q1 0 2 0 0-1 0-2z"/>
	<path class="s216" d="m697 883q0.5 1 1 2c-6.8 1.1-6.8 1.1-9 0q0-1 0-2c2.9-1.5 4.9-0.7 8 0z"/>
	<path class="s217" d="m888 582c2.4 0.8 2.4 0.8 5 2 0.8 2.1 0.8 2.1 1 4q-2.5-0.5-5-1-0.5-2.5-1-5z"/>
	<path class="s218" d="m691 555c-1.2 3.5-2.1 4.1-5.1 6.2q-1.1 0.8-2.2 1.6-0.8 0.6-1.7 1.2c0.8-4.4 4.1-9 9-9z"/>
	<path class="s18" d="m797 556c3 1.4 5.3 2.9 7.8 5.1 0.9 0.8 0.9 0.8 1.8 1.7q0.7 0.6 1.4 1.2-1 1-2 2-2.3-2.2-4.5-4.4-1.2-1.3-2.5-2.5c-2-2.1-2-2.1-2-3.1z"/>
	<path class="s143" d="m788 551c3.3 0.3 4 1 6.3 3.6q0.8 1.2 1.7 2.4c-2.5-1-2.5-1-5-2q-0.5 1-1 2-1-3-2-6z"/>
	<path class="s219" d="m666 518q1.5 0.5 3 1c-3.3 4.8-3.3 4.8-6.8 5.8q-1.1 0.1-2.2 0.2c2-2.3 4-4.6 6-7z"/>
	<path class="s145" d="m802 498q1 1 2 2 1-0.5 2-1c1 2.3 2 4.6 3 7q-1 1-2 2-0.7-1.2-1.4-2.4c-1.5-2.6-1.5-2.6-3.6-4.6q0-1.5 0-3z"/>
	<path class="s220" d="m768 476c0.8 1.8 0.8 1.8 1 4-1.9 2.3-1.9 2.3-4 4q-1-0.5-2-1c0-2 0-2 2.5-4.6q1.2-1.2 2.5-2.4z"/>
	<path class="s221" d="m828 1041c3.4 1.5 6.1 3.6 9 6q-1.5 0.5-3 1 0-1 0-2c-2-0.7-4-1.3-6-2q0-1.5 0-3z"/>
	<path class="s222" d="m1204 1030q1.5 0 3 0-0.4 0.8-0.9 1.7c-1.1 2.4-2.1 4.8-3.1 7.3-2-3.8-2-3.8-2-6q1 0 2 0 0.5-1.5 1-3z"/>
	<path class="s68" d="m1106 1033q1 0 2 0c1.8 2.8 2 3.9 1.6 7.3q-0.3 1.3-0.6 2.7c-0.6-2.1-1-3.8-1-6q-1.5 0-3 0 0.5-2 1-4z"/>
	<path class="s223" d="m962 1028q1 0 2 0 0 1 0 2 1 0 2 0 0 1 0 2 1 0 2 0 0.5 2 1 4c-1 0.5-1 0.5-2 1q-1.3-1.7-2.5-3.4-0.7-0.9-1.4-1.9c-1.1-1.7-1.1-1.7-1.1-3.7z"/>
	<path class="s154" d="m291 1028c1.7 1.6 1.7 1.6 3 3-2.6 0-5.3 0-8 0q-0.5-1.5-1-3c3-1 3-1 6 0z"/>
	<path class="s224" d="m358 1018q1 0 2 0c1.5 1.5 1.5 1.5 3.1 3.5q0.8 1 1.7 2 0.6 0.7 1.2 1.5-0.5 1-1 2-2.6-1.9-5-4 0-1 0-2-1 0-2 0 0-1.5 0-3z"/>
	<path class="s225" d="m768 1015c3.3 3.6 4.5 6.1 5 11-1.9-1-1.9-1-4-3-0.7-2.7-0.8-5.2-1-8z"/>
	<path class="s226" d="m581 1002c2.7 2.4 4 4.6 5 8q-0.5 1.5-1 3c-3.1-3.4-3.6-6.4-4-11z"/>
	<path class="s227" d="m591 976c2.2 2.6 3.4 4.6 4 8q-1.5 0.5-3 1 0.5-2 1-4-1-0.2-1.9-0.3-1.1-0.4-2.1-0.7-0.5-1.5-1-3 1.5-0.5 3-1z"/>
	<path class="s200" d="m294 956q2.2 0.1 4.3 0.3 1.2 0.1 2.4 0.2c2.7 0.6 3.6 1.5 5.3 3.5-4.3-0.5-8-1.2-12-3q0-0.5 0-1z"/>
	<path class="s228" d="m1061 675c4 2.1 6.4 4.4 9 8-3.9-1.3-6.3-2.8-9-6q0-1 0-2z"/>
	<path class="s163" d="m612 568q1.5 0.5 3 1 0 1 0 2-2.9 2.6-6 5-1-0.5-2-1c3.9-5.9 3.9-5.9 5-7z"/>
	<path class="s115" d="m761 546q1 0.5 2 1c-2.6 2.6-5.3 5.3-8 8q-1-2-2-4 1.1-0.4 2.3-0.8c2.6-1.1 3.9-2.1 5.7-4.2z"/>
	<path class="s115" d="m1020 1046q-0.5 2-1 4-3 0.5-6 1c1-3 1-3 2.9-4.2 2.1-0.8 2.1-0.8 4.1-0.8z"/>
	<path class="s229" d="m888 1034c2.2 3.2 2.2 4.3 2 8q-2.5-0.5-5-1c1.9-4.8 1.9-4.8 3-7z"/>
	<path class="s143" d="m598 996c3 1 3 1 4.3 3.3 0.7 2.8 0.7 4-0.3 6.7q0-1 0-2-1 0-2 0c-0.7-2.6-1.3-5.3-2-8z"/>
	<path class="s230" d="m429 988q0.5 1.5 1 3 1 0 2 0 0 2 0 4-1 0-2 0-0.5 1.5-1 3c-1-3.7-1-6.3 0-10z"/>
	<path class="s231" d="m846 963q1.5 0.5 3 1-4.5 4.5-9 9c0.4-4.8 2.5-6.8 6-10z"/>
	<path class="s217" d="m1346 959q1.5 0.5 3 1c-2 2-2 2-5 2.2q-1.8 0-3.6-0.1-1.8 0-3.6 0-1.4-0.1-2.8-0.1 0-0.5 0-1c1-0.1 1-0.1 2.1-0.2q1.4-0.1 2.8-0.2 1.3-0.2 2.7-0.3c2.4-0.2 2.4-0.2 4.4-1.3z"/>
	<path class="s62" d="m324 956q1.5 0 3 0 0 1 0 2-1 0-2 0 0 2.5 0 5-2 0.5-4 1c1.9-5.8 1.9-5.8 3-8z"/>
	<path class="s88" d="m628 952q2 0 4 0-0.5 3-1 6-1.5-1-3-2 0-2 0-4z"/>
	<path class="s209" d="m1281 954c2.8 0.8 2.8 0.8 5 2q-0.5 1-1 2c-2.6-0.3-5.3-0.7-8-1 1.7-1.6 1.7-1.6 4-3z"/>
	<path class="s232" d="m514 941c1 3 1 3 0.2 5q-0.5 1.1-1.1 2.2-0.6 1.1-1.2 2.2c-0.4 0.8-0.4 0.8-0.9 1.6-0.8-2.4-1.2-3.5-0.2-5.9 1.6-2.6 1.6-2.6 3.2-5.1z"/>
	<path class="s233" d="m689 939c2.3 0 4.6 0 7 0q-0.5 1.5-1 3c-2.3 0-4.6 0-7 0q0.5-1.5 1-3z"/>
	<path class="s234" d="m533 939q2.5 0 5 0c0.9 2.6 1.1 3.6 0.1 6.3-0.6 0.8-0.6 0.8-1.1 1.7q0-3 0-6-2.5 0-5 0 0.5-1 1-2z"/>
	<path class="s62" d="m393 937c2.6 0.3 5.3 0.7 8 1q0.5 2 1 4c-3.8-1.1-6.5-1.9-9-5z"/>
	<path class="s79" d="m641 938c6.9 0.5 6.9 0.5 14 1q0 0.5 0 1-2.9 0.3-5.9 0.6-1.6 0.1-3.3 0.3c-2.8 0.1-2.8 0.1-4.8-0.9q0-1 0-2z"/>
	<path class="s235" d="m732 875q0 1.5 0 3c-3 0-5.9 0-9 0q0-1 0-2c6.8-1 6.8-1 9-1z"/>
	<path class="s236" d="m1085 869q0.5 0 1 0c0.3 3 0.7 5.9 1 9q-3 0-6 0 0-1 0-2 1.5-0.5 3-1 0.5-3 1-6z"/>
	<path class="s237" d="m694 603c3.1 0 4.4 0.5 7 2-3 1.2-5.9 2.3-9 3q1-2.5 2-5z"/>
	<path class="s129" d="m909 597q2 1.4 3.9 2.8 1.1 0.7 2.3 1.5c2 1.9 2.4 3 2.8 5.7q-1.7-1.4-3.4-2.8-0.9-0.7-1.9-1.5c-1.8-1.8-2.7-3.4-3.7-5.7z"/>
	<path class="s91" d="m907 593c2 0.5 2 0.5 4 1q-0.5 2-1 4-1.5 0-3 0-0.5-1.5-1-3 0.5-1 1-2z"/>
	<path class="s238" d="m831 587q0.9 0.5 1.9 0.9 2.1 1.1 4.3 2c1.8 1.1 1.8 1.1 2.8 4.1-3 0-3 0-4.6-1.5q-0.8-1-1.6-2-0.8-1-1.6-2-0.6-0.7-1.2-1.5z"/>
	<path class="s239" d="m678 565q1.5 0.5 3 1c-4 3.5-4 3.5-8 7 0-3 0-3 2.5-5.7q1.2-1.1 2.5-2.3z"/>
	<path class="s166" d="m870 562q2 1.4 3.9 2.9 1.1 0.8 2.3 1.6c1.8 1.5 1.8 1.5 2.8 3.5-4.2-0.5-6.3-2.9-9-6q0-1 0-2z"/>
	<path class="s240" d="m746 504q2 0.5 4 1-1 0-2 0 0 2 0 4-2.5-0.5-5-1 1.5-2 3-4z"/>
	<path class="s161" d="m848 488c4.2 2.6 7.1 5 10 9-2.5-1.2-4.7-2.5-7-4q0-1 0-2-1.5-0.5-3-1 0-1 0-2z"/>
	<path class="s178" d="m726 461q1 0.5 2 1-1.4 1.5-2.9 3-0.8 0.8-1.6 1.7c-1.5 1.3-1.5 1.3-3.5 1.3q0.5-2.5 1-5 1-0.2 1.9-0.4c2.1-0.4 2.1-0.4 3.1-1.6z"/>
	<path class="s107" d="m363 1041c-1 1.5-1 1.5-2 3q-2-0.5-4-1 0 1 0 2-1-0.5-2-1 0-1.5 0-3c2.9-1.4 4.9-0.6 8 0z"/>
	<path class="s241" d="m611 1033q0 1.5 0 3c-3 1.5-5.7 1.1-9 1 2.7-2.7 5.4-3.1 9-4z"/>
	<path class="s200" d="m888 1030c0.8 1.8 0.8 1.8 1 4-1.9 2.3-1.9 2.3-4 4q0.4-3.5 1-7 1-0.5 2-1z"/>
	<path class="s242" d="m1086 1030c0 2.6 0 5.3 0 8-2.5-2.2-3.4-3.7-4-7 2-1 2-1 4-1z"/>
	<path class="s243" d="m1114 1019c2 3 2 3 1.6 5.7q-0.3 1.1-0.6 2.3-1.5-0.5-3-1 0-2.5 0-5 1 0 2 0 0-1 0-2z"/>
	<path class="s68" d="m1124 1004c2 0.5 2 0.5 4 1-0.8 1.9-0.8 1.9-2 4q-1.5 0.5-3 1 0.5-3 1-6z"/>
	<path class="s244" d="m1193 1004q1.5 0.5 3 1 0.5 1.5 1 3-0.5 1-1 2-2 0-4 0-0.1-2.5 0-5 0.5-0.5 1-1z"/>
	<path class="s141" d="m510 1003c1.5 2.6 2 3.9 2 7q-2-0.5-4-1 0-2.5 0-5 1-0.5 2-1z"/>
	<path class="s245" d="m615 983q1 0.5 2 1c-2 4.5-2 4.5-4 9-1.2-4.8-0.3-5.9 2-10z"/>
	<path class="s246" d="m458 981c2.7 2.4 3.8 4.6 5 8-3-1-3-1-5-4q-1-0.5-2-1 0-1 0-2 1-0.5 2-1z"/>
	<path class="s247" d="m355 977c2 0.5 2 0.5 4 1q0 1.5 0 3-2 0-4 0-0.5 1.5-1 3c0.3-2.3 0.7-4.6 1-7z"/>
	<path class="s145" d="m254 966q1 0.5 2 1-0.5 1.4-1 2.9c-1.1 2.9-1.1 2.9-1 5.1q-1.5 0.5-3 1-0.5-2-1-4 1-0.5 2-1 1.1-2.5 2-5z"/>
	<path class="s248" d="m990 961c2.1 0.4 2.1 0.4 4 1-4.8 4.9-4.8 4.9-7 6 1.9-5.9 1.9-5.9 3-7z"/>
	<path class="s60" d="m368 960q1.5 0.5 3 1-1 0-2 0-0.5 1.5-1 3c-3.1 1.7-3.1 1.7-6 3 1.4-3.3 2.8-5.2 6-7z"/>
	<path class="s75" d="m880 946c1.9 0.2 1.9 0.2 4 1 1.3 2.6 1.3 2.6 2 5q-1 0-2 0 0-1 0-2-2 0-4 0 0-2 0-4z"/>
	<path class="s249" d="m1172 941q2 1 4 2-0.5 2.5-1 5-2-1-4-2 0.5-2.5 1-5z"/>
	<path class="s250" d="m514 668q0 1 0 2c-1.8 1.5-1.8 1.5-4 3.1q-1.1 0.8-2.3 1.7-0.8 0.6-1.7 1.2 0-1.5 0-3c5.3-5 5.3-5 8-5z"/>
	<path class="s251" d="m866 622q2.6 1.9 5 4 0 1 0 2c-2.4-0.6-4.7-1.2-7-2q0-1 0-2 1 0 2 0 0-1 0-2z"/>
	<path class="s252" d="m810 567q1 0 2 0 0 1 0 2 0.9 0.4 1.9 0.8c2.1 1.2 2.1 1.2 4.1 4.2-3.8-0.5-5.6-2.1-8-5q0-1 0-2z"/>
	<path class="s200" d="m930 562c3.8 1.5 5.6 3.8 8 7q-2.5-0.5-5-1 0-1.5 0-3-1.5-0.5-3-1 0-1 0-2z"/>
	<path class="s240" d="m814 565q1 2 2 4c-1 0.5-1 0.5-2 1q-1-0.5-2-1 0-1 0-2-1 0-2 0-0.5 1-1 2-0.5-1.5-1-3c2.1-0.6 3.8-1 6-1z"/>
	<path class="s250" d="m684 557c0 3 0 3-1.3 4.6q-0.8 0.8-1.7 1.6-0.8 0.8-1.7 1.6-0.6 0.6-1.3 1.2-1-0.5-2-1 1.4-1.7 2.9-3.4 0.8-1 1.6-2c1.5-1.6 1.5-1.6 3.5-2.6z"/>
	<path class="s253" d="m756 553q1.5 0.5 3 1c-4 3.5-4 3.5-8 7 0-3 0-3 2.5-5.7q1.2-1.1 2.5-2.3z"/>
	<path class="s254" d="m628 548q1 0 2 0 0.5 2 1 4c-2.3 0.7-4.6 1.3-7 2q0.5-1.5 1-3 1 0 2 0 0.5-1.5 1-3z"/>
	<path class="s255" d="m712 528q1.5 0 3 0 0 1 0 2c-1.8 1.5-1.8 1.5-4 3.1q-1.1 0.8-2.3 1.7-0.8 0.6-1.7 1.2c0.8-2.4 0.8-2.4 2-5q1.5-0.5 3-1 0-1 0-2z"/>
	<path class="s161" d="m808 507c3.8 1.6 6.2 4 9 7-4.3 0-5.9-2.1-9-5q0-1 0-2z"/>
	<path class="s256" d="m750 441q1.5 0.5 3 1-0.5 2-1 4-2.5-0.5-5-1 1.5-2 3-4zm3 0c2 1 2 1 2 1z"/>
	<path class="s115" d="m414 1031q1 0.5 2 1c-3 4-3 4-6 8q-1-0.5-2-1c3.8-5.8 3.8-5.8 6-8z"/>
	<path class="s75" d="m1198 1026c1.9 2.9 2.5 4.6 3 8q-1.5 0-3 0c-1.1-5.8-1.1-5.8 0-8z"/>
	<path class="s257" d="m257 1028c2 0 2 0 3.6 1.3 1.5 1.9 2 3.3 2.4 5.7-1 0.5-1 0.5-2 1-4-5.8-4-5.8-4-8z"/>
	<path class="s258" d="m1209 1023c2 3 2 3 2 5q-1 0-2 0 0 1 0 2-1 0-2 0 0-3 0-6 1-0.5 2-1z"/>
	<path class="s259" d="m316 1019c2.1 0.4 2.1 0.4 4 1q-0.5 2-1 4-1 0-2 0 0-1 0-2c-2 1-2 1-4 2 1.9-3.9 1.9-3.9 3-5z"/>
	<path class="s260" d="m1137 1020q2 0 4 0 0 1 0 2c2.3 0 4.6 0 7 0q0 0.5 0 1c-3.3 0-6.6 0-10 0q-0.5-1.5-1-3z"/>
	<path class="s31" d="m318 1017c-2.8 2.1-2.8 2.1-6 4q-1.5-0.5-3-1c3.2-3.3 4.5-4.4 9-3z"/>
	<path class="s261" d="m252 1010q0.5 1.5 1 3 1 0.5 2 1-0.5 1-1 2-1 0-2 0-0.5 1-1 2-0.5-2.5-1-5 1 0 2 0 0-1.5 0-3z"/>
	<path class="s262" d="m838 1002q0.5 0 1 0c0.3 4 0.7 7.9 1 12q-1.5 0-3 0c0.3-4 0.7-7.9 1-12z"/>
	<path class="s263" d="m812 1000c1.5 1 1.5 1 3 2-0.3 2.3-0.7 4.6-1 7q-1-0.5-2-1c0-2.6 0-5.3 0-8z"/>
	<path class="s264" d="m1099 995q1.5 0.5 3 1c-2.2 3.3-3.3 3.8-7 5 1.2-2.5 2-4 4-6z"/>
	<path class="s226" d="m459 993c3.7 3.1 4.6 5.2 5 10-3.4-2.7-4-5.9-5-10z"/>
	<path class="s265" d="m947 980q1.5 0.5 3 1-0.5 1.5-1 3c-3.2 1.4-5.7 0.8-9 0q0-0.5 0-1c1.5-0.2 1.5-0.2 2.9-0.4 1.6-0.3 1.6-0.3 3.1-0.6q0.5-1 1-2z"/>
	<path class="s168" d="m270 976q1 0 2 0c1.1 3.3 0.8 4.7 0 8q-0.5-1.5-1-3-1.5 0-3 0 0-1 0-2 1 0 2 0 0-1.5 0-3z"/>
	<path class="s42" d="m1022 961q0.5 1.5 1 3-0.5 1-1 2 1 0.5 2 1c-1 0.5-1 0.5-2 1q-2-2-4-4 2-0.5 4-1 0-1 0-2z"/>
	<path class="s18" d="m508 953q1 0 2 0-0.7 2.2-1.4 4.4-0.4 1.3-0.7 2.5c-0.9 2.1-0.9 2.1-2.9 3.1 0.6-3.6 1.6-6.7 3-10z"/>
	<path class="s163" d="m581 954q1 0.5 2 1-0.5 1.5-1 3-0.1 2.5 0 5-0.5-1.5-1-3-1 0-2 0c0.9-4.9 0.9-4.9 2-6z"/>
	<path class="s126" d="m292 954q2 2 4 4c-2.3 0-4.6 0-7 0q0-1.5 0-3 1.5-0.5 3-1z"/>
	<path class="s266" d="m831 947q1 0.5 2 1c-1.3 1.6-2.6 3.3-4 5q1 0.5 2 1-1.5 0.5-3 1-1-1-2-2c1.6-2 3.3-4 5-6z"/>
	<path class="s267" d="m889 856q1.5 0.5 3 1 0 3 0 6-2-1-4-2 0.5-2.5 1-5z"/>
	<path class="s268" d="m930 622q2 0.5 4 1 0 1.5 0 3c-3-0.5-3-0.5-6-1q1-1.5 2-3z"/>
	<path class="s269" d="m647 593c-1.4 3.4-3 5-6 7q-1-0.5-2-1c4.6-6 4.6-6 8-6z"/>
	<path class="s270" d="m957 587c3.3 0.3 4 1 6.3 3.6q0.8 1.2 1.7 2.4c-3.3-0.3-4-1-6.3-3.6q-0.8-1.2-1.7-2.4z"/>
	<path class="s271" d="m748 562q0 1.5 0 3c-2.3 1.6-2.3 1.6-5 3q-1.5 1-3 2c1.5-3.5 3.8-8 8-8z"/>
	<path class="s272" d="m675 561q2 0 4 0-0.5 1.5-1 3-2-0.5-4-1 0.5-1 1-2zm-2 3q1 0 2 0 0 1.5 0 3-1.5-0.5-3-1 0.5-1 1-2z"/>
	<path class="s90" d="m786 549c2.1 0.4 2.1 0.4 4 1 0 3 0 3-2 6q-0.5-1.5-1-3-1.5-1-3-2 1-1 2-2z"/>
	<path class="s175" d="m350 1037q1.5 1.5 3 3-0.5 1.5-1 3c-1.6-1.7-3.3-3.3-5-5q1.5-0.5 3-1z"/>
	<path class="s273" d="m371 1028c3.3 0.3 6.6 0.7 10 1q0 0.5 0 1c-6.6 1.1-6.6 1.1-10 0q0-1 0-2z"/>
	<path class="s225" d="m958 1023q1.5 2 3 4-1 1-2 2-0.5-1-1-2-1 2-2 4-0.5-3-1-6 1.5 0 3 0 0-1 0-2z"/>
	<path class="s274" d="m622 1008c1.2 3.6 0.5 4.6-1 8q-0.5 0-1 0c-0.3-2.3-0.7-4.6-1-7q1.5-0.5 3-1z"/>
	<path class="s131" d="m248 1009c2 2 2 2 2.1 5.1q0 1.4-0.1 2.9-2-1-4-2 1-3 2-6z"/>
	<path class="s275" d="m401 1005c1 0.5 1 0.5 2 1 2.1-0.4 2.1-0.4 4-1q0 2 0 4c-3-0.5-3-0.5-6-1q0-1.5 0-3z"/>
	<path class="s276" d="m1144 999q1.5 0 3 0-0.5 3-1 6-2.5-1.5-5-3 0.5-1 1-2 1 0.5 2 1 0-1 0-2z"/>
	<path class="s277" d="m949 994q0.5 0 1 0c0 2.3 0 4.6 0 7q-2-0.5-4-1c1-2 2-4 3-6z"/>
	<path class="s211" d="m813 992q1 0 2 0 0.5 2 1 4-1 0-2 0-0.5 1-1 2-1 0-2 0 0-1.5 0-3 1 0 2 0 0-1.5 0-3z"/>
	<path class="s278" d="m1129 984c1.2 3.6 0.5 4.6-1 8q-1 0-2 0c-0.2-2.9-0.2-2.9 0-6q1.5-1 3-2z"/>
	<path class="s272" d="m436 986c2.3 3.4 2.2 5 2 9-1 0.5-1 0.5-2 1-1-3.7-1-6.3 0-10z"/>
	<path class="s279" d="m616 979q2 0 4 0 1 2 2 4-3.5 0-7 0 0.5-2 1-4z"/>
	<path class="s92" d="m1155 971q0.5 1.5 1 3 2-0.5 4-1c-1 3-1 3-3 5q-1-0.5-2-1 0-3 0-6z"/>
	<path class="s107" d="m983 967q-1 3-2 6c-1.5-1.4-1.5-1.4-3-3q0-1 0-2c2-1 2-1 5-1z"/>
	<path class="s191" d="m390 963c1.8 0.2 1.8 0.2 4 1 1.8 2.6 1.8 2.6 3 5-2.5-1-2.5-1-5-2q0-1.5 0-3-1-0.5-2-1z"/>
	<path class="s45" d="m340 957q1 0 2 0 0 1.5 0 3-1 0-2 0-0.2 1-0.4 1.9-0.3 1.1-0.6 2.1c-1 0.5-1 0.5-2 1 0.5-3.4 1.1-5.1 3-8z"/>
	<path class="s162" d="m290 958q3 0 6 0-0.5 1-1 2-3.5 1.1-7 2 1-2 2-4z"/>
	<path class="s280" d="m972 946q1.5 0.5 3 1c-2.4 2.6-4.9 4.3-8 6 1.3-2.9 2.7-4.9 5-7z"/>
	<path class="s154" d="m352 944q0.5 1 1 2 1 0.5 2 1-0.5 2.5-1 5c-2-3-2-3-2-5q-1-0.5-2-1 1-1 2-2z"/>
	<path class="s281" d="m1169 938q1 1 2 2c-0.4 2.1-0.4 2.1-1 4q-1-1-2-2-3-0.6-6-1 0-0.5 0-1c2.3 0 4.6 0 7 0q0-1 0-2z"/>
	<path class="s269" d="m842 600c3.3 0.3 4 1 6.3 3.6q0.8 1.2 1.7 2.4c-3.9-1.3-5.8-2.5-8-6z"/>
	<path class="s282" d="m880 575c2.9 0.6 3.9 0.9 6 3q0 1.5 0 3-1 0-2 0c-4-4.6-4-4.6-4-6z"/>
	<path class="s283" d="m728 573q2.5 0 5 0c-1.4 3.2-2 4-5 6q0-3 0-6z"/>
	<path class="s242" d="m778 541c3.4 1.4 5.5 3.3 8 6-1 0.5-1 0.5-2 1q-3.1-2.4-6-5 0-1 0-2z"/>
	<path class="s41" d="m841 537c3.8 1.6 6.2 4 9 7-2.4-0.2-3.7-0.7-5.4-2.4q-1.8-2.3-3.6-4.6z"/>
	<path class="s113" d="m840 484c2.3-0.3 2.3-0.3 5 0 1.8 2 1.8 2 3 4-2.3-0.3-4.6-0.7-7-1q-0.5-1.5-1-3z"/>
	<path class="s177" d="m720 469q1.5 1 3 2-1.5 1.5-3 3-2-1-4-2 2-1.5 4-3z"/>
</svg>